<svg width="58" height="58" viewBox="0 0 58 58" fill="none" xmlns="http://www.w3.org/2000/svg">
<rect width="58" height="58" rx="29" fill="#BD9B60"/>
<path d="M19.828 41.038L33.394 15.73H36.32L22.678 41.038H19.828ZM30.316 35.262C30.316 33.59 30.8987 32.1713 32.064 31.006C33.2293 29.8153 34.648 29.22 36.32 29.22C37.9667 29.22 39.3727 29.8153 40.538 31.006C41.7287 32.1967 42.324 33.6153 42.324 35.262C42.324 36.9087 41.7287 38.3273 40.538 39.518C39.3727 40.6833 37.9667 41.266 36.32 41.266C34.648 41.266 33.2293 40.6833 32.064 39.518C30.8987 38.3273 30.316 36.9087 30.316 35.262ZM13.862 21.43C13.862 19.7833 14.4447 18.3773 15.61 17.212C16.8007 16.0213 18.2193 15.426 19.866 15.426C21.5127 15.426 22.9313 16.0213 24.122 17.212C25.3127 18.3773 25.908 19.7833 25.908 21.43C25.908 23.102 25.3127 24.5333 24.122 25.724C22.9313 26.8893 21.5127 27.472 19.866 27.472C18.2193 27.472 16.8007 26.8893 15.61 25.724C14.4447 24.5333 13.862 23.102 13.862 21.43ZM17.472 19.036C16.8133 19.6947 16.484 20.4927 16.484 21.43C16.484 22.3673 16.8133 23.178 17.472 23.862C18.1307 24.5207 18.9287 24.85 19.866 24.85C20.8033 24.85 21.6013 24.5207 22.26 23.862C22.944 23.178 23.286 22.3673 23.286 21.43C23.286 20.4927 22.944 19.6947 22.26 19.036C21.6013 18.3773 20.8033 18.048 19.866 18.048C18.9287 18.048 18.1307 18.3773 17.472 19.036ZM33.888 32.868C33.2293 33.5267 32.9 34.3247 32.9 35.262C32.9 36.1993 33.2293 36.9973 33.888 37.656C34.572 38.3147 35.3827 38.644 36.32 38.644C37.2573 38.644 38.0553 38.3147 38.714 37.656C39.398 36.9973 39.74 36.1993 39.74 35.262C39.74 34.3247 39.4107 33.5267 38.752 32.868C38.0933 32.184 37.2827 31.842 36.32 31.842C35.3827 31.842 34.572 32.184 33.888 32.868Z" fill="white"/>
</svg>
