<svg width="75" height="75" viewBox="0 0 75 75" fill="none" xmlns="http://www.w3.org/2000/svg">
<rect width="75" height="75" rx="37.5" fill="#BD9B60"/>
<path fill-rule="evenodd" clip-rule="evenodd" d="M37.9435 15.4719C33.4059 15.4719 30.206 17.57 28.2949 20.4828C26.3964 23.3761 25.7774 27.0567 26.3275 30.2576C27.0811 34.643 30.9168 42.8202 37.6023 49.0615L37.9651 49.4002L38.3065 49.0399C40.1358 47.1092 42.7205 43.8173 44.9315 40.2962C47.1312 36.7931 49.0134 32.982 49.3543 30.0302C49.8128 26.0602 48.9771 22.4254 47.0002 19.7705C45.0149 17.1045 41.9105 15.4719 37.9435 15.4719ZM27.3131 30.0882C26.8021 27.1149 27.3833 23.695 29.1309 21.0314C30.8659 18.3872 33.7582 16.4719 37.9435 16.4719C41.612 16.4719 44.4117 17.9688 46.1981 20.3678C47.9929 22.778 48.7965 26.1436 48.3609 29.9155C48.0477 32.6268 46.2766 36.2736 44.0847 39.7644C42.0397 43.0211 39.674 46.0715 37.921 47.9863C31.6047 41.926 28.0127 34.1598 27.3131 30.0882ZM27.9283 41.4132C26.6536 41.6586 25.1938 42.2641 23.886 43.1175C22.5801 43.9698 21.3861 45.0953 20.6859 46.4068C19.977 47.7345 19.775 49.2582 20.4859 50.8272C21.1859 52.3719 22.7391 53.8896 25.381 55.3106C31.8372 58.7835 39.7178 58.7721 45.8546 57.089C48.9252 56.2469 51.5955 54.9767 53.4531 53.4797C55.2939 51.9962 56.4376 50.1998 56.1759 48.3184C55.9112 46.4161 54.5839 44.8958 53.0556 43.7705C51.5187 42.6388 49.7043 41.8499 48.3105 41.4258L48.0194 42.3825C49.3312 42.7817 51.037 43.5259 52.4627 44.5757C53.897 45.6319 54.9747 46.9416 55.1854 48.4561C55.3746 49.8162 54.5642 51.2999 52.8256 52.701C51.1039 54.0886 48.5696 55.3075 45.5901 56.1246C39.6265 57.7603 32.0248 57.7489 25.8547 54.43C23.3104 53.0614 21.9699 51.6792 21.3968 50.4145C20.8347 49.1739 20.9803 47.9785 21.568 46.8778C22.1643 45.761 23.2158 44.749 24.4325 43.955C25.6472 43.1623 26.9871 42.6128 28.1174 42.3952L27.9283 41.4132ZM42.1946 26.3965C42.1946 28.6426 40.3738 30.4633 38.1278 30.4633C35.8818 30.4633 34.061 28.6426 34.061 26.3965C34.061 24.1505 35.8818 22.3297 38.1278 22.3297C40.3738 22.3297 42.1946 24.1505 42.1946 26.3965ZM43.1946 26.3965C43.1946 29.1949 40.9261 31.4633 38.1278 31.4633C35.3295 31.4633 33.061 29.1949 33.061 26.3965C33.061 23.5982 35.3295 21.3297 38.1278 21.3297C40.9261 21.3297 43.1946 23.5982 43.1946 26.3965Z" fill="white"/>
<path d="M28.2949 20.4828L28.7129 20.7571L28.7129 20.7571L28.2949 20.4828ZM26.3275 30.2576L26.8203 30.1729L26.3275 30.2576ZM37.6023 49.0615L37.9435 48.696L37.9435 48.696L37.6023 49.0615ZM37.9651 49.4002L37.6239 49.7657L37.9867 50.1044L38.328 49.7441L37.9651 49.4002ZM38.3065 49.0399L37.9435 48.696L37.9435 48.696L38.3065 49.0399ZM44.9315 40.2962L45.355 40.5621L45.355 40.5621L44.9315 40.2962ZM49.3543 30.0302L49.851 30.0876L49.851 30.0876L49.3543 30.0302ZM47.0002 19.7705L46.5991 20.0692L46.5991 20.0692L47.0002 19.7705ZM29.1309 21.0314L28.7129 20.7571L28.7129 20.7571L29.1309 21.0314ZM27.3131 30.0882L27.8058 30.0036L27.8058 30.0036L27.3131 30.0882ZM46.1981 20.3678L46.5991 20.0692L46.1981 20.3678ZM48.3609 29.9155L48.8576 29.9729L48.8576 29.9729L48.3609 29.9155ZM44.0847 39.7644L43.6612 39.4985L43.6612 39.4985L44.0847 39.7644ZM37.921 47.9863L37.5749 48.3471L37.9442 48.7015L38.2898 48.3239L37.921 47.9863ZM23.886 43.1175L23.6127 42.6988L23.6127 42.6988L23.886 43.1175ZM27.9283 41.4132L28.4193 41.3187L28.3248 40.8277L27.8338 40.9222L27.9283 41.4132ZM20.6859 46.4068L21.1269 46.6423L21.1269 46.6423L20.6859 46.4068ZM20.4859 50.8272L20.0305 51.0335L20.0305 51.0335L20.4859 50.8272ZM25.381 55.3106L25.1441 55.751L25.1441 55.751L25.381 55.3106ZM45.8546 57.089L45.7223 56.6068L45.7223 56.6068L45.8546 57.089ZM53.4531 53.4797L53.7669 53.869L53.7669 53.869L53.4531 53.4797ZM56.1759 48.3184L56.6711 48.2495L56.6711 48.2495L56.1759 48.3184ZM53.0556 43.7705L53.3521 43.3679L53.3521 43.3679L53.0556 43.7705ZM48.3105 41.4258L48.456 40.9475L47.9777 40.8019L47.8321 41.2803L48.3105 41.4258ZM48.0194 42.3825L47.541 42.237L47.3955 42.7153L47.8738 42.8609L48.0194 42.3825ZM52.4627 44.5757L52.7592 44.1731L52.7592 44.1731L52.4627 44.5757ZM55.1854 48.4561L54.6902 48.525L54.6902 48.525L55.1854 48.4561ZM52.8256 52.701L52.5119 52.3117L52.5119 52.3117L52.8256 52.701ZM45.5901 56.1246L45.4578 55.6425L45.4578 55.6425L45.5901 56.1246ZM25.8547 54.43L25.6178 54.8703L25.6178 54.8703L25.8547 54.43ZM21.3968 50.4145L20.9414 50.6208L20.9414 50.6208L21.3968 50.4145ZM21.568 46.8778L21.1269 46.6423L21.1269 46.6423L21.568 46.8778ZM24.4325 43.955L24.7057 44.3737L24.7057 44.3737L24.4325 43.955ZM28.1174 42.3952L28.2119 42.8861L28.7029 42.7916L28.6084 42.3006L28.1174 42.3952ZM28.7129 20.7571C30.536 17.9786 33.5821 15.9719 37.9435 15.9719V14.9719C33.2296 14.9719 29.8761 17.1615 27.8768 20.2085L28.7129 20.7571ZM26.8203 30.1729C26.2898 27.0858 26.8899 23.5356 28.7129 20.7571L27.8768 20.2085C25.903 23.2167 25.2651 27.0276 25.8347 30.3423L26.8203 30.1729ZM37.9435 48.696C31.3297 42.5216 27.5536 34.4401 26.8203 30.1729L25.8347 30.3423C26.6086 34.8459 30.504 43.1188 37.2611 49.427L37.9435 48.696ZM38.3063 49.0347L37.9435 48.696L37.2611 49.427L37.6239 49.7657L38.3063 49.0347ZM37.9435 48.696L37.6021 49.0563L38.328 49.7441L38.6694 49.3838L37.9435 48.696ZM44.5081 40.0303C42.3123 43.5272 39.7473 46.7922 37.9435 48.696L38.6694 49.3838C40.5243 47.4261 43.1288 44.1074 45.355 40.5621L44.5081 40.0303ZM48.8576 29.9729C48.5306 32.8045 46.7039 36.5334 44.5081 40.0303L45.355 40.5621C47.5585 37.0528 49.4962 33.1596 49.851 30.0876L48.8576 29.9729ZM46.5991 20.0692C48.485 22.6016 49.3046 26.1019 48.8576 29.9729L49.851 30.0876C50.3209 26.0185 49.4693 22.2491 47.4012 19.4719L46.5991 20.0692ZM37.9435 15.9719C41.7613 15.9719 44.7133 17.5367 46.5991 20.0692L47.4012 19.4719C45.3165 16.6723 42.0598 14.9719 37.9435 14.9719V15.9719ZM28.7129 20.7571C26.8899 23.5355 26.2898 27.0858 26.8203 30.1729L27.8058 30.0036C27.3144 27.144 27.8767 23.8544 29.549 21.3057L28.7129 20.7571ZM37.9435 15.9719C33.5821 15.9719 30.536 17.9786 28.7129 20.7571L29.549 21.3057C31.1958 18.7958 33.9343 16.9719 37.9435 16.9719V15.9719ZM46.5991 20.0692C44.7133 17.5367 41.7613 15.9719 37.9435 15.9719V16.9719C41.4627 16.9719 44.1101 18.401 45.7971 20.6664L46.5991 20.0692ZM48.8576 29.9729C49.3046 26.1018 48.485 22.6016 46.5991 20.0692L45.7971 20.6664C47.5008 22.9543 48.2883 26.1854 47.8642 29.8582L48.8576 29.9729ZM44.5081 40.0303C46.7039 36.5334 48.5306 32.8045 48.8576 29.9729L47.8642 29.8582C47.5649 32.4492 45.8494 36.0137 43.6612 39.4985L44.5081 40.0303ZM38.2898 48.3239C40.0646 46.3853 42.4483 43.3106 44.5081 40.0303L43.6612 39.4985C41.6311 42.7316 39.2835 45.7577 37.5522 47.6487L38.2898 48.3239ZM26.8203 30.1729C27.5401 34.3614 31.1904 42.2214 37.5749 48.3471L38.2672 47.6255C32.0191 41.6306 28.4854 33.9582 27.8058 30.0036L26.8203 30.1729ZM24.1592 43.5363C25.4205 42.7132 26.8203 42.1357 28.0229 41.9042L27.8338 40.9222C26.4868 41.1816 24.967 41.815 23.6127 42.6988L24.1592 43.5363ZM21.1269 46.6423C21.7752 45.4281 22.8979 44.3594 24.1592 43.5363L23.6127 42.6988C22.2622 43.5801 20.9971 44.7624 20.2448 46.1713L21.1269 46.6423ZM20.9414 50.6208C20.3049 49.2162 20.4786 47.8567 21.1269 46.6423L20.2448 46.1713C19.4755 47.6122 19.2451 49.3002 20.0305 51.0335L20.9414 50.6208ZM25.6178 54.8703C23.0247 53.4755 21.5779 52.0255 20.9414 50.6208L20.0305 51.0335C20.7939 52.7182 22.4535 54.3037 25.1441 55.751L25.6178 54.8703ZM45.7223 56.6068C39.6721 58.2662 31.931 58.2662 25.6178 54.8703L25.1441 55.751C31.7435 59.3008 39.7635 59.2781 45.9868 57.5712L45.7223 56.6068ZM53.1394 53.0904C51.3497 54.5326 48.7474 55.7772 45.7223 56.6068L45.9868 57.5712C49.103 56.7166 51.8413 55.4208 53.7669 53.869L53.1394 53.0904ZM55.6806 48.3872C55.906 50.0075 54.9296 51.6476 53.1394 53.0904L53.7669 53.869C55.6581 52.3448 56.9692 50.392 56.6711 48.2495L55.6806 48.3872ZM52.7592 44.1731C54.2406 45.264 55.443 46.6789 55.6806 48.3872L56.6711 48.2495C56.3795 46.1532 54.9271 44.5276 53.3521 43.3679L52.7592 44.1731ZM48.1649 41.9042C49.5178 42.3158 51.2779 43.0824 52.7592 44.1731L53.3521 43.3679C51.7596 42.1952 49.8908 41.384 48.456 40.9475L48.1649 41.9042ZM48.4977 42.5281L48.7888 41.5714L47.8321 41.2803L47.541 42.237L48.4977 42.5281ZM52.7592 44.1731C51.2779 43.0824 49.5178 42.3158 48.1649 41.9042L47.8738 42.8609C49.1447 43.2476 50.7961 43.9695 52.1662 44.9783L52.7592 44.1731ZM55.6806 48.3872C55.443 46.6789 54.2406 45.264 52.7592 44.1731L52.1662 44.9783C53.5535 45.9998 54.5064 47.2042 54.6902 48.525L55.6806 48.3872ZM53.1394 53.0904C54.9298 51.6475 55.906 50.0074 55.6806 48.3872L54.6902 48.525C54.8432 49.625 54.1987 50.9524 52.5119 52.3117L53.1394 53.0904ZM45.7223 56.6068C48.7474 55.7772 51.3497 54.5326 53.1394 53.0904L52.5119 52.3117C50.8581 53.6445 48.3918 54.8378 45.4578 55.6425L45.7223 56.6068ZM25.6178 54.8703C31.931 58.2662 39.6721 58.2662 45.7223 56.6068L45.4578 55.6425C39.5809 57.2543 32.1186 57.2316 26.0916 53.9896L25.6178 54.8703ZM20.9414 50.6208C21.5779 52.0255 23.0247 53.4755 25.6178 54.8703L26.0916 53.9896C23.5961 52.6473 22.3619 51.3329 21.8522 50.2081L20.9414 50.6208ZM21.1269 46.6423C20.4785 47.8567 20.305 49.2163 20.9414 50.6208L21.8522 50.2081C21.3644 49.1315 21.4821 48.1003 22.0091 47.1133L21.1269 46.6423ZM24.1592 43.5363C22.8979 44.3594 21.7752 45.4281 21.1269 46.6423L22.0091 47.1133C22.5534 46.0939 23.5337 45.1386 24.7057 44.3737L24.1592 43.5363ZM28.0229 41.9042C26.8203 42.1357 25.4205 42.7132 24.1592 43.5363L24.7057 44.3737C25.8739 43.6114 27.1539 43.0899 28.2119 42.8861L28.0229 41.9042ZM27.4373 41.5077L27.6264 42.4897L28.6084 42.3006L28.4193 41.3187L27.4373 41.5077ZM38.1278 30.9633C40.65 30.9633 42.6946 28.9187 42.6946 26.3965H41.6946C41.6946 28.3664 40.0977 29.9633 38.1278 29.9633V30.9633ZM33.561 26.3965C33.561 28.9187 35.6056 30.9633 38.1278 30.9633V29.9633C36.1579 29.9633 34.561 28.3664 34.561 26.3965H33.561ZM38.1278 21.8297C35.6056 21.8297 33.561 23.8744 33.561 26.3965H34.561C34.561 24.4266 36.1579 22.8297 38.1278 22.8297V21.8297ZM42.6946 26.3965C42.6946 23.8744 40.65 21.8297 38.1278 21.8297V22.8297C40.0977 22.8297 41.6946 24.4266 41.6946 26.3965H42.6946ZM38.1278 31.9633C41.2023 31.9633 43.6946 29.471 43.6946 26.3965H42.6946C42.6946 28.9187 40.65 30.9633 38.1278 30.9633V31.9633ZM32.561 26.3965C32.561 29.471 35.0533 31.9633 38.1278 31.9633V30.9633C35.6056 30.9633 33.561 28.9187 33.561 26.3965H32.561ZM38.1278 20.8297C35.0533 20.8297 32.561 23.3221 32.561 26.3965H33.561C33.561 23.8744 35.6056 21.8297 38.1278 21.8297V20.8297ZM43.6946 26.3965C43.6946 23.3221 41.2023 20.8297 38.1278 20.8297V21.8297C40.65 21.8297 42.6946 23.8744 42.6946 26.3965H43.6946Z" fill="white"/>
</svg>
