<svg width="161" height="45" viewBox="0 0 161 45" fill="none" xmlns="http://www.w3.org/2000/svg">
<path d="M0.575 43.573C0.88 43.878 1.246 44 1.673 44H30.038C30.465 44 30.831 43.878 31.136 43.573C31.441 43.329 31.624 42.963 31.624 42.475V36.009C31.624 35.582 31.441 35.216 31.136 34.911C30.831 34.606 30.465 34.423 30.038 34.423H11.738V2.825C11.738 2.398 11.555 2.032 11.311 1.727C11.006 1.483 10.64 1.3 10.213 1.3H1.673C1.246 1.3 0.88 1.483 0.575 1.727C0.27 2.032 0.148 2.398 0.148 2.825V42.475C0.148 42.902 0.27 43.268 0.575 43.573ZM40.2736 40.401C43.5676 43.207 48.1426 44.61 53.9376 44.61C59.6716 44.61 64.2466 43.207 67.5406 40.401C70.8346 37.595 72.6036 33.508 72.8476 28.018C72.9086 25.761 72.9696 23.992 72.9696 22.772C72.9696 21.613 72.9086 19.844 72.8476 17.465C72.6646 12.097 70.8956 8.01 67.4796 5.082C64.0636 2.154 59.5496 0.689998 53.9376 0.689998C48.2036 0.689998 43.6896 2.154 40.2736 5.082C36.8576 8.01 35.0886 12.097 34.9666 17.465C34.9056 18.685 34.9056 20.454 34.9056 22.772C34.9056 25.151 34.9056 26.92 34.9666 28.018C35.1496 33.508 36.9186 37.595 40.2736 40.401ZM59.0006 33.569C57.7196 34.85 56.0116 35.46 53.9376 35.46C51.7416 35.46 50.0336 34.85 48.8136 33.569C47.5326 32.288 46.8616 30.336 46.8006 27.652C46.7396 26.493 46.7396 24.785 46.7396 22.589C46.7396 20.454 46.7396 18.807 46.8006 17.648C46.8616 15.025 47.5326 13.073 48.8136 11.792C50.0336 10.511 51.7416 9.84 53.9376 9.84C56.0116 9.84 57.7196 10.511 59.0006 11.792C60.2206 13.073 60.8916 15.025 61.0136 17.648C61.0746 19.966 61.1356 21.613 61.1356 22.589C61.1356 23.626 61.0746 25.334 61.0136 27.652C60.8916 30.336 60.2206 32.288 59.0006 33.569ZM83.8791 40.34C87.1731 43.207 91.8091 44.61 97.7261 44.61C101.63 44.61 105.046 44 107.974 42.658C110.902 41.316 113.159 39.425 114.745 36.924C116.331 34.423 117.185 31.434 117.185 27.957V20.881C117.185 20.454 117.002 20.088 116.697 19.783C116.392 19.478 116.026 19.295 115.599 19.295H100.105C99.6171 19.295 99.2511 19.478 98.9461 19.783C98.6411 20.088 98.5191 20.454 98.5191 20.881V25.639C98.5191 26.127 98.6411 26.493 98.9461 26.798C99.2511 27.103 99.6171 27.225 100.105 27.225H105.534V28.323C105.534 30.763 104.802 32.532 103.46 33.691C102.057 34.911 100.166 35.46 97.8481 35.46C93.0291 35.46 90.5281 32.898 90.4061 27.713C90.3451 26.554 90.3451 24.785 90.3451 22.406C90.3451 20.088 90.3451 18.319 90.4061 17.16C90.5281 12.28 92.9681 9.84 97.7261 9.84C99.6781 9.84 101.142 10.267 102.24 11.06C103.338 11.914 104.131 12.89 104.619 13.988C104.802 14.293 104.985 14.537 105.229 14.659C105.473 14.781 105.778 14.842 106.205 14.842H115.66C116.026 14.842 116.331 14.72 116.575 14.476C116.819 14.232 117.002 13.866 117.002 13.5C116.88 11.426 116.087 9.413 114.562 7.461C113.037 5.509 110.841 3.862 107.913 2.581C104.985 1.361 101.63 0.689998 97.7261 0.689998C91.8701 0.689998 87.2951 2.154 83.8791 4.96C80.4631 7.766 78.6941 11.731 78.5721 16.855C78.5111 18.075 78.5111 19.905 78.5111 22.467C78.5111 25.029 78.5111 26.92 78.5721 28.018C78.7551 33.386 80.5241 37.473 83.8791 40.34ZM127.961 40.401C131.255 43.207 135.83 44.61 141.625 44.61C147.359 44.61 151.934 43.207 155.228 40.401C158.522 37.595 160.291 33.508 160.535 28.018C160.596 25.761 160.657 23.992 160.657 22.772C160.657 21.613 160.596 19.844 160.535 17.465C160.352 12.097 158.583 8.01 155.167 5.082C151.751 2.154 147.237 0.689998 141.625 0.689998C135.891 0.689998 131.377 2.154 127.961 5.082C124.545 8.01 122.776 12.097 122.654 17.465C122.593 18.685 122.593 20.454 122.593 22.772C122.593 25.151 122.593 26.92 122.654 28.018C122.837 33.508 124.606 37.595 127.961 40.401ZM146.688 33.569C145.407 34.85 143.699 35.46 141.625 35.46C139.429 35.46 137.721 34.85 136.501 33.569C135.22 32.288 134.549 30.336 134.488 27.652C134.427 26.493 134.427 24.785 134.427 22.589C134.427 20.454 134.427 18.807 134.488 17.648C134.549 15.025 135.22 13.073 136.501 11.792C137.721 10.511 139.429 9.84 141.625 9.84C143.699 9.84 145.407 10.511 146.688 11.792C147.908 13.073 148.579 15.025 148.701 17.648C148.762 19.966 148.823 21.613 148.823 22.589C148.823 23.626 148.762 25.334 148.701 27.652C148.579 30.336 147.908 32.288 146.688 33.569Z" fill="white"/>
</svg>
