<svg width="58" height="58" viewBox="0 0 58 58" fill="none" xmlns="http://www.w3.org/2000/svg">
<rect width="58" height="58" rx="29" fill="#BD9B60"/>
<path fill-rule="evenodd" clip-rule="evenodd" d="M36.0516 17.5663C36.0516 17.908 35.7747 18.1842 35.4337 18.1842C35.0926 18.1842 34.8158 17.908 34.8158 17.5663V14.3224H23.1849V17.5664C23.1849 17.9081 22.9081 18.1843 22.567 18.1843C22.2259 18.1843 21.9491 17.908 21.9491 17.5664V13.7046C21.9491 13.3628 22.2259 13.0867 22.567 13.0867H35.4337C35.7747 13.0867 36.0516 13.3629 36.0516 13.7046V17.5663ZM43.382 19.5905H14.6179C14.2768 19.5905 14 19.8667 14 20.2084V28.75C14 29.0916 14.2768 29.3679 14.6179 29.3679H43.3821C43.7232 29.3679 44 29.0917 44 28.75V20.2084C43.9999 19.8667 43.7231 19.5905 43.382 19.5905ZM42.7642 28.1321H15.2357V20.8263H42.7641L42.7642 28.1321ZM40.9514 31.085C40.9514 30.7432 41.2282 30.4671 41.5693 30.4671C41.9104 30.4671 42.1872 30.7438 42.1872 31.0849V42.7288C42.1872 43.0706 41.9104 43.3467 41.5693 43.3467H16.4315C16.0904 43.3467 15.8136 43.0705 15.8136 42.7288V31.0849C15.8136 30.7431 16.0904 30.467 16.4315 30.467C16.7726 30.467 17.0494 30.7432 17.0494 31.0849V42.111H40.9514V31.085ZM18.9282 30.467H27.4697C27.8114 30.467 28.0877 30.7438 28.0876 31.085V34.0928H30.7994V31.085C30.7994 30.7432 31.0763 30.467 31.4173 30.467H39.0723C39.4134 30.467 39.6902 30.7433 39.6902 31.085C39.6902 31.4267 39.4134 31.7029 39.0723 31.7029H32.0353V34.7107C32.0353 35.0525 31.7585 35.3286 31.4174 35.3286H27.4698C27.1288 35.3286 26.8519 35.0524 26.8519 34.7107V31.7029H18.9282C18.5871 31.7029 18.3103 31.4266 18.3103 31.085C18.3103 30.7432 18.5871 30.467 18.9282 30.467Z" fill="white"/>
<path d="M34.8158 14.3224H35.0658V14.0724H34.8158V14.3224ZM23.1849 14.3224V14.0724H22.9349V14.3224H23.1849ZM44 20.2084L44.25 20.2084L44.25 20.2084L44 20.2084ZM15.2357 28.1321H14.9857V28.3821H15.2357V28.1321ZM42.7642 28.1321V28.3821H43.0142L43.0142 28.1321L42.7642 28.1321ZM15.2357 20.8263V20.5763H14.9857V20.8263H15.2357ZM42.7641 20.8263L43.0141 20.8263L43.0141 20.5763H42.7641V20.8263ZM17.0494 42.111H16.7994V42.361H17.0494V42.111ZM40.9514 42.111V42.361H41.2014V42.111H40.9514ZM28.0876 31.085L27.8376 31.0849V31.085H28.0876ZM28.0876 34.0928H27.8376V34.3428H28.0876V34.0928ZM30.7994 34.0928V34.3428H31.0494V34.0928H30.7994ZM32.0353 31.7029V31.4529H31.7853V31.7029H32.0353ZM26.8519 31.7029H27.1019V31.4529H26.8519V31.7029ZM35.4337 18.4342C35.9126 18.4342 36.3016 18.0463 36.3016 17.5663H35.8016C35.8016 17.7698 35.6369 17.9342 35.4337 17.9342V18.4342ZM34.5658 17.5663C34.5658 18.0462 34.9547 18.4342 35.4337 18.4342V17.9342C35.2306 17.9342 35.0658 17.7698 35.0658 17.5663H34.5658ZM34.5658 14.3224V17.5663H35.0658V14.3224H34.5658ZM23.1849 14.5724H34.8158V14.0724H23.1849V14.5724ZM23.4349 17.5664V14.3224H22.9349V17.5664H23.4349ZM22.567 18.4343C23.046 18.4343 23.4349 18.0464 23.4349 17.5664H22.9349C22.9349 17.7699 22.7702 17.9343 22.567 17.9343V18.4343ZM21.6991 17.5664C21.6991 18.0463 22.088 18.4343 22.567 18.4343V17.9343C22.3638 17.9343 22.1991 17.7698 22.1991 17.5664H21.6991ZM21.6991 13.7046V17.5664H22.1991V13.7046H21.6991ZM22.567 12.8367C22.088 12.8367 21.6991 13.2246 21.6991 13.7046H22.1991C22.1991 13.5011 22.3638 13.3367 22.567 13.3367V12.8367ZM35.4337 12.8367H22.567V13.3367H35.4337V12.8367ZM36.3016 13.7046C36.3016 13.2247 35.9127 12.8367 35.4337 12.8367V13.3367C35.6368 13.3367 35.8016 13.5011 35.8016 13.7046H36.3016ZM36.3016 17.5663V13.7046H35.8016V17.5663H36.3016ZM14.6179 19.8405H43.382V19.3405H14.6179V19.8405ZM14.25 20.2084C14.25 20.0049 14.4147 19.8405 14.6179 19.8405V19.3405C14.1389 19.3405 13.75 19.7284 13.75 20.2084H14.25ZM14.25 28.75V20.2084H13.75V28.75H14.25ZM14.6179 29.1179C14.4148 29.1179 14.25 28.9534 14.25 28.75H13.75C13.75 29.2299 14.1389 29.6179 14.6179 29.6179V29.1179ZM43.3821 29.1179H14.6179V29.6179H43.3821V29.1179ZM43.75 28.75C43.75 28.9535 43.5853 29.1179 43.3821 29.1179V29.6179C43.8611 29.6179 44.25 29.23 44.25 28.75H43.75ZM43.75 20.2084V28.75H44.25V20.2084H43.75ZM43.382 19.8405C43.5852 19.8405 43.75 20.005 43.75 20.2085L44.25 20.2084C44.2499 19.7285 43.861 19.3405 43.382 19.3405V19.8405ZM15.2357 28.3821H42.7642V27.8821H15.2357V28.3821ZM14.9857 20.8263V28.1321H15.4857V20.8263H14.9857ZM42.7641 20.5763H15.2357V21.0763H42.7641V20.5763ZM43.0142 28.1321L43.0141 20.8263L42.5141 20.8263L42.5142 28.1321L43.0142 28.1321ZM41.5693 30.2171C41.0903 30.2171 40.7014 30.605 40.7014 31.085H41.2014C41.2014 30.8815 41.3661 30.7171 41.5693 30.7171V30.2171ZM42.4372 31.0849C42.4372 30.6057 42.0484 30.2171 41.5693 30.2171V30.7171C41.7723 30.7171 41.9372 30.8819 41.9372 31.0849H42.4372ZM42.4372 42.7288V31.0849H41.9372V42.7288H42.4372ZM41.5693 43.5967C42.0483 43.5967 42.4372 43.2088 42.4372 42.7288H41.9372C41.9372 42.9323 41.7725 43.0967 41.5693 43.0967V43.5967ZM16.4315 43.5967H41.5693V43.0967H16.4315V43.5967ZM15.5636 42.7288C15.5636 43.2087 15.9525 43.5967 16.4315 43.5967V43.0967C16.2283 43.0967 16.0636 42.9323 16.0636 42.7288H15.5636ZM15.5636 31.0849V42.7288H16.0636V31.0849H15.5636ZM16.4315 30.217C15.9525 30.217 15.5636 30.6049 15.5636 31.0849H16.0636C16.0636 30.8814 16.2283 30.717 16.4315 30.717V30.217ZM17.2994 31.0849C17.2994 30.605 16.9105 30.217 16.4315 30.217V30.717C16.6346 30.717 16.7994 30.8814 16.7994 31.0849H17.2994ZM17.2994 42.111V31.0849H16.7994V42.111H17.2994ZM40.9514 41.861H17.0494V42.361H40.9514V41.861ZM40.7014 31.085V42.111H41.2014V31.085H40.7014ZM27.4697 30.217H18.9282V30.717H27.4697V30.217ZM28.3376 31.085C28.3377 30.6059 27.9496 30.217 27.4697 30.217V30.717C27.6732 30.717 27.8376 30.8817 27.8376 31.0849L28.3376 31.085ZM28.3376 34.0928V31.085H27.8376V34.0928H28.3376ZM30.7994 33.8428H28.0876V34.3428H30.7994V33.8428ZM30.5494 31.085V34.0928H31.0494V31.085H30.5494ZM31.4173 30.217C30.9384 30.217 30.5494 30.6049 30.5494 31.085H31.0494C31.0494 30.8814 31.2142 30.717 31.4173 30.717V30.217ZM39.0723 30.217H31.4173V30.717H39.0723V30.217ZM39.9402 31.085C39.9402 30.605 39.5513 30.217 39.0723 30.217V30.717C39.2755 30.717 39.4402 30.8815 39.4402 31.085H39.9402ZM39.0723 31.9529C39.5513 31.9529 39.9402 31.565 39.9402 31.085H39.4402C39.4402 31.2885 39.2755 31.4529 39.0723 31.4529V31.9529ZM32.0353 31.9529H39.0723V31.4529H32.0353V31.9529ZM32.2853 34.7107V31.7029H31.7853V34.7107H32.2853ZM31.4174 35.5786C31.8964 35.5786 32.2853 35.1907 32.2853 34.7107H31.7853C31.7853 34.9142 31.6206 35.0786 31.4174 35.0786V35.5786ZM27.4698 35.5786H31.4174V35.0786H27.4698V35.5786ZM26.6019 34.7107C26.6019 35.1906 26.9908 35.5786 27.4698 35.5786V35.0786C27.2667 35.0786 27.1019 34.9142 27.1019 34.7107H26.6019ZM26.6019 31.7029V34.7107H27.1019V31.7029H26.6019ZM18.9282 31.9529H26.8519V31.4529H18.9282V31.9529ZM18.0603 31.085C18.0603 31.5649 18.4492 31.9529 18.9282 31.9529V31.4529C18.7251 31.4529 18.5603 31.2884 18.5603 31.085H18.0603ZM18.9282 30.217C18.4493 30.217 18.0603 30.6049 18.0603 31.085H18.5603C18.5603 30.8814 18.725 30.717 18.9282 30.717V30.217Z" fill="white"/>
</svg>
