<svg width="54" height="54" viewBox="0 0 54 54" fill="none" xmlns="http://www.w3.org/2000/svg">
<rect x="1" y="1" width="52" height="52" rx="5" fill="#BD9B60" stroke="#BD9B60" stroke-width="0.5"/>
<g clip-path="url(#clip0_58_83)">
<path d="M34.4229 11.4904H19.5685C17.5713 11.4904 15.8525 13.1616 15.8525 15.1082V38.8948C15.8525 40.8383 17.5713 42.5127 19.5685 42.5127H34.4324C36.4296 42.5127 38.1483 40.8414 38.1483 38.8948V15.1082C38.1483 13.1616 36.4201 11.4904 34.4229 11.4904ZM37.1798 38.8916C37.1798 40.3033 35.8979 41.5378 34.4324 41.5378H19.5685C18.1062 41.5378 16.8211 40.3002 16.8211 38.8916V23.1225H37.1766V38.8916H37.1798ZM37.1798 22.154H16.8211V15.1082C16.8211 13.6965 18.103 12.4621 19.5685 12.4621H34.4229C35.8915 12.4621 37.1798 13.6997 37.1798 15.1082V22.154ZM19.4894 13.9149C18.8215 13.9149 18.2771 14.4562 18.2771 15.1209V19.4952C18.2771 20.1599 18.8215 20.7011 19.4894 20.7011C20.1572 20.7011 20.7017 20.1599 20.7017 19.4952V15.1209C20.6985 14.453 20.1572 13.9149 19.4894 13.9149ZM19.7299 19.492C19.7299 19.6218 19.6191 19.7294 19.4862 19.7294C19.3533 19.7294 19.2425 19.6218 19.2425 19.492V15.1209C19.2425 14.9911 19.3533 14.8835 19.4862 14.8835C19.6191 14.8835 19.7299 14.9911 19.7299 15.1209V19.492ZM19.4894 33.6785C20.1477 33.6785 20.7017 33.1594 20.7017 32.5232V25.6737C20.7017 25.0375 20.1509 24.5184 19.4894 24.5184C18.831 24.5184 18.2771 25.0375 18.2771 25.6737V32.5232C18.2771 33.1594 18.8278 33.6785 19.4894 33.6785ZM19.2457 25.6737C19.2457 25.5724 19.3659 25.4869 19.4894 25.4869C19.6128 25.4869 19.7331 25.5724 19.7331 25.6737V32.5232C19.7331 32.6245 19.6128 32.71 19.4894 32.71C19.3659 32.71 19.2457 32.6245 19.2457 32.5232V25.6737ZM35.2395 16.3996C34.9705 16.3996 34.7552 16.618 34.7552 16.8839V20.2137C34.7552 20.4827 34.9736 20.698 35.2395 20.698C35.5085 20.698 35.7238 20.4827 35.7238 20.2137V16.8839C35.7238 16.6148 35.5085 16.3996 35.2395 16.3996ZM35.2395 37.5116C35.5085 37.5116 35.7238 37.2964 35.7238 37.0273V25.1166C35.7238 24.8476 35.5085 24.6323 35.2395 24.6323C34.9705 24.6323 34.7552 24.8476 34.7552 25.1166V37.0273C34.7552 37.2964 34.9705 37.5116 35.2395 37.5116ZM35.2395 14.146C34.9705 14.146 34.7552 14.3644 34.7552 14.6303V15.1557C34.7552 15.4247 34.9736 15.64 35.2395 15.64C35.5085 15.64 35.7238 15.4247 35.7238 15.1557V14.6303C35.7238 14.3644 35.5085 14.146 35.2395 14.146Z" fill="white"/>
</g>
<defs>
<clipPath id="clip0_58_83">
<rect width="31.6522" height="31.6522" fill="white" transform="translate(11.1743 11.1738)"/>
</clipPath>
</defs>
</svg>
