<svg width="75" height="75" viewBox="0 0 75 75" fill="none" xmlns="http://www.w3.org/2000/svg">
<rect width="75" height="75" rx="37.5" fill="#BD9B60"/>
<path fill-rule="evenodd" clip-rule="evenodd" d="M18.4935 37.4148C18.079 32.1572 20.7829 20.419 35.0943 15.9546L34.7965 15C19.9328 19.6366 17.055 31.8918 17.4966 37.4934L18.4935 37.4148ZM35.9548 31.4427C35.5359 28.2371 35.9511 23.7409 38.458 20.5707C40.8388 17.56 45.2203 15.6105 53.0034 17.3215L47.4181 23.413L47.103 23.7566L47.4238 24.0949L52.8171 29.783L53.1513 30.1356L53.5133 29.8116L59.8498 24.1413C60.6558 27.2657 60.9002 31.4952 59.295 34.9351C58.4315 36.7857 57.0307 38.4145 54.8729 39.537C52.709 40.6627 49.7523 41.2951 45.7575 41.0915L45.5369 41.0803L45.3801 41.2357L29.2073 57.2588C26.4064 59.817 22.7494 59.1146 20.3487 57.001C19.1519 55.9473 18.3117 54.5733 18.071 53.1487C17.833 51.7405 18.1734 50.2518 19.3927 48.9077L27.6108 39.8586L26.8706 39.1863L18.6522 48.2356L18.652 48.2358C17.2244 49.8096 16.7964 51.6082 17.0849 53.3153C17.3707 55.006 18.3519 56.5753 19.6879 57.7516C22.351 60.0962 26.6016 61.0011 29.8898 57.9897L29.8971 57.9831L29.904 57.9762L45.9278 42.1007C49.9402 42.2768 53.0148 41.6308 55.3344 40.4242C57.7026 39.1922 59.2521 37.392 60.2012 35.3579C62.0869 31.317 61.5955 26.3809 60.5924 23.0881L60.3642 22.339L59.7807 22.8612L53.2085 28.7425L48.4702 23.7452L54.3189 17.3666L54.8894 16.7444L54.0696 16.5431C45.5244 14.4449 40.4575 16.4301 37.6736 19.9504C34.999 23.3326 34.5472 27.9964 34.9331 31.3275L32.2793 33.9992L32.9887 34.7039L35.8138 31.8598L35.9866 31.6859L35.9548 31.4427ZM40.6314 59.9295C43.6982 59.709 48.441 58.5632 52.7657 55.8399C57.1012 53.1099 61.0326 48.7818 62.4014 42.2099L61.4224 42.006C60.1202 48.2582 56.3897 52.3761 52.2329 54.9937C48.0652 57.6181 43.4854 58.7217 40.5597 58.9321L40.6314 59.9295ZM23.206 51.8956C23.206 53.0771 24.164 54.0351 25.3458 54.0351C26.5277 54.0351 27.4856 53.0771 27.4856 51.8956C27.4856 50.714 26.5277 49.7561 25.3458 49.7561C24.164 49.7561 23.206 50.714 23.206 51.8956ZM22.206 51.8956C22.206 53.6295 23.6118 55.0351 25.3458 55.0351C27.0799 55.0351 28.4856 53.6295 28.4856 51.8956C28.4856 50.1617 27.0799 48.7561 25.3458 48.7561C23.6118 48.7561 22.206 50.1617 22.206 51.8956Z" fill="white"/>
<path d="M35.0943 15.9546L35.2432 16.4319L35.7205 16.2831L35.5716 15.8057L35.0943 15.9546ZM18.4935 37.4148L18.5328 37.9132L19.0313 37.8739L18.992 37.3755L18.4935 37.4148ZM34.7965 15L35.2738 14.8511L35.1249 14.3738L34.6476 14.5227L34.7965 15ZM17.4966 37.4934L16.9982 37.5327L17.0375 38.0311L17.5359 37.9918L17.4966 37.4934ZM38.458 20.5707L38.0658 20.2605L38.0658 20.2605L38.458 20.5707ZM35.9548 31.4427L36.4506 31.3779L36.4506 31.3779L35.9548 31.4427ZM53.0034 17.3215L53.372 17.6595L53.9587 17.0196L53.1108 16.8332L53.0034 17.3215ZM47.4181 23.413L47.0495 23.0751L47.0495 23.0751L47.4181 23.413ZM47.103 23.7566L46.7344 23.4187L46.4194 23.7623L46.7401 24.1007L47.103 23.7566ZM47.4238 24.0949L47.0609 24.439L47.0609 24.439L47.4238 24.0949ZM52.8171 29.783L53.1799 29.439L53.1799 29.439L52.8171 29.783ZM53.1513 30.1356L52.7885 30.4796L53.1227 30.8321L53.4847 30.5082L53.1513 30.1356ZM53.5133 29.8116L53.1799 29.439L53.1799 29.439L53.5133 29.8116ZM59.8498 24.1413L60.3339 24.0164L60.1286 23.2208L59.5163 23.7688L59.8498 24.1413ZM59.295 34.9351L59.7481 35.1465L59.7481 35.1465L59.295 34.9351ZM54.8729 39.537L55.1036 39.9806L55.1037 39.9806L54.8729 39.537ZM45.7575 41.0915L45.7829 40.5922L45.7829 40.5922L45.7575 41.0915ZM45.5369 41.0803L45.5624 40.5809L45.3419 40.5697L45.185 40.7251L45.5369 41.0803ZM45.3801 41.2357L45.732 41.5909L45.732 41.5909L45.3801 41.2357ZM29.2073 57.2588L29.5445 57.6279L29.552 57.6211L29.5592 57.6139L29.2073 57.2588ZM20.3487 57.001L20.0183 57.3763L20.0183 57.3763L20.3487 57.001ZM18.071 53.1487L17.5779 53.232L17.5779 53.232L18.071 53.1487ZM19.3927 48.9077L19.0226 48.5715L19.0224 48.5717L19.3927 48.9077ZM27.6108 39.8586L27.981 40.1948L28.3171 39.8246L27.947 39.4885L27.6108 39.8586ZM26.8706 39.1863L27.2067 38.8162L26.8366 38.48L26.5004 38.8502L26.8706 39.1863ZM18.6522 48.2356L18.2821 47.8994L18.2805 47.9011L18.6522 48.2356ZM18.652 48.2358L19.0224 48.5717L19.0237 48.5702L18.652 48.2358ZM17.0849 53.3153L16.5919 53.3986L16.5919 53.3986L17.0849 53.3153ZM19.6879 57.7516L20.0183 57.3763L20.0183 57.3763L19.6879 57.7516ZM29.8898 57.9897L29.5522 57.6209L29.5521 57.621L29.8898 57.9897ZM29.8971 57.9831L30.2347 58.3519L30.242 58.3452L30.249 58.3382L29.8971 57.9831ZM29.904 57.9762L29.5521 57.621L29.5521 57.621L29.904 57.9762ZM45.9278 42.1007L45.9497 41.6012L45.7313 41.5916L45.5759 41.7455L45.9278 42.1007ZM55.3344 40.4242L55.1037 39.9806L55.1037 39.9806L55.3344 40.4242ZM60.2012 35.3579L59.7481 35.1465L59.7481 35.1465L60.2012 35.3579ZM60.5924 23.0881L61.0707 22.9424L61.0707 22.9424L60.5924 23.0881ZM60.3642 22.339L60.8425 22.1933L60.6143 21.4442L60.0308 21.9664L60.3642 22.339ZM59.7807 22.8612L60.1141 23.2338L60.1141 23.2338L59.7807 22.8612ZM53.2085 28.7425L52.8456 29.0865L53.1799 29.439L53.5419 29.1151L53.2085 28.7425ZM48.4702 23.7452L48.1017 23.4073L47.7866 23.7509L48.1074 24.0892L48.4702 23.7452ZM54.3189 17.3666L54.6874 17.7045L54.6874 17.7045L54.3189 17.3666ZM54.8894 16.7444L55.2579 17.0823L55.8284 16.4601L55.0086 16.2588L54.8894 16.7444ZM54.0696 16.5431L54.1888 16.0575L54.1888 16.0575L54.0696 16.5431ZM37.6736 19.9504L37.2814 19.6403L37.2814 19.6403L37.6736 19.9504ZM34.9331 31.3275L35.2878 31.6798L35.4575 31.5091L35.4298 31.2699L34.9331 31.3275ZM32.2793 33.9992L31.9245 33.6468L31.5722 34.0015L31.9269 34.3539L32.2793 33.9992ZM32.9887 34.7039L32.6364 35.0586L32.9911 35.411L33.3435 35.0563L32.9887 34.7039ZM35.8138 31.8598L36.1685 32.2122L36.1685 32.2122L35.8138 31.8598ZM35.9866 31.6859L36.3414 32.0382L36.5142 31.8642L36.4824 31.6211L35.9866 31.6859ZM52.7657 55.8399L52.4993 55.4168L52.4993 55.4168L52.7657 55.8399ZM40.6314 59.9295L40.1327 59.9654L40.1685 60.4641L40.6672 60.4283L40.6314 59.9295ZM62.4014 42.2099L62.8909 42.3119L62.9928 41.8224L62.5033 41.7204L62.4014 42.2099ZM61.4224 42.006L61.5243 41.5165L61.0348 41.4146L60.9329 41.9041L61.4224 42.006ZM52.2329 54.9937L52.4993 55.4168L52.4993 55.4168L52.2329 54.9937ZM40.5597 58.9321L40.5238 58.4334L40.0251 58.4693L40.0609 58.968L40.5597 58.9321ZM34.9454 15.4773C20.3581 20.0277 17.567 32.0242 17.9951 37.4541L18.992 37.3755C18.5911 32.2902 21.2077 20.8102 35.2432 16.4319L34.9454 15.4773ZM34.3192 15.1489L34.617 16.1035L35.5716 15.8057L35.2738 14.8511L34.3192 15.1489ZM17.9951 37.4541C17.567 32.0242 20.3581 20.0277 34.9454 15.4773L34.6476 14.5227C19.5075 19.2455 16.543 31.7594 16.9982 37.5327L17.9951 37.4541ZM18.4542 36.9163L17.4573 36.9949L17.5359 37.9918L18.5328 37.9132L18.4542 36.9163ZM38.0658 20.2605C35.442 23.5786 35.031 28.2324 35.4591 31.5075L36.4506 31.3779C36.0407 28.2417 36.4601 23.9032 38.8502 20.8808L38.0658 20.2605ZM53.1108 16.8332C45.2014 15.0944 40.5995 17.0565 38.0658 20.2605L38.8502 20.8808C41.0781 18.0635 45.2392 16.1266 52.8961 17.8099L53.1108 16.8332ZM47.7866 23.7509L53.372 17.6595L52.6349 16.9836L47.0495 23.0751L47.7866 23.7509ZM47.4715 24.0945L47.7866 23.7509L47.0495 23.0751L46.7344 23.4187L47.4715 24.0945ZM47.7866 23.7509L47.4658 23.4126L46.7401 24.1007L47.0609 24.439L47.7866 23.7509ZM53.1799 29.439L47.7866 23.7509L47.0609 24.439L52.4542 30.1271L53.1799 29.439ZM53.5141 29.7915L53.1799 29.439L52.4542 30.1271L52.7885 30.4796L53.5141 29.7915ZM53.1799 29.439L52.8179 29.763L53.4847 30.5082L53.8467 30.1842L53.1799 29.439ZM59.5163 23.7688L53.1799 29.439L53.8467 30.1842L60.1832 24.5139L59.5163 23.7688ZM59.7481 35.1465C61.4216 31.5602 61.155 27.1993 60.3339 24.0164L59.3656 24.2663C60.1565 27.3321 60.3788 31.4301 58.8419 34.7236L59.7481 35.1465ZM55.1037 39.9806C57.3666 38.8034 58.8418 37.0889 59.7481 35.1465L58.8419 34.7236C58.0212 36.4825 56.6948 38.0257 54.6422 39.0934L55.1037 39.9806ZM45.732 41.5909C49.7898 41.7977 52.8407 41.1578 55.1036 39.9806L54.6422 39.0934C52.5773 40.1676 49.7147 40.7926 45.7829 40.5922L45.732 41.5909ZM45.5115 41.5796L45.732 41.5909L45.7829 40.5922L45.5624 40.5809L45.5115 41.5796ZM45.732 41.5909L45.8889 41.4355L45.185 40.7251L45.0282 40.8805L45.732 41.5909ZM29.5592 57.6139L45.732 41.5909L45.0282 40.8805L28.8554 56.9036L29.5592 57.6139ZM20.0183 57.3763C22.5502 59.6054 26.5013 60.4075 29.5445 57.6279L28.8701 56.8896C26.3114 59.2265 22.9486 58.6238 20.6791 56.6257L20.0183 57.3763ZM17.5779 53.232C17.8412 54.7896 18.7518 56.2612 20.0183 57.3763L20.6791 56.6257C19.5519 55.6333 18.7823 54.357 18.564 53.0653L17.5779 53.232ZM19.0224 48.5717C17.699 50.0307 17.3147 51.6743 17.5779 53.232L18.564 53.0653C18.3513 51.8066 18.6479 50.4729 19.763 49.2436L19.0224 48.5717ZM27.2407 39.5225L19.0226 48.5715L19.7628 49.2438L27.981 40.1948L27.2407 39.5225ZM26.5344 39.5565L27.2747 40.2288L27.947 39.4885L27.2067 38.8162L26.5344 39.5565ZM19.0224 48.5717L27.2407 39.5225L26.5004 38.8502L18.2821 47.8994L19.0224 48.5717ZM19.0237 48.5702L19.0239 48.57L18.2805 47.9011L18.2803 47.9014L19.0237 48.5702ZM17.5779 53.232C17.3147 51.6743 17.699 50.0307 19.0224 48.5717L18.2817 47.8999C16.7499 49.5885 16.2782 51.542 16.5919 53.3986L17.5779 53.232ZM20.0183 57.3763C18.7518 56.2612 17.8412 54.7896 17.5779 53.232L16.5919 53.3986C16.9001 55.2223 17.952 56.8894 19.3575 58.1268L20.0183 57.3763ZM29.5521 57.621C26.5079 60.4089 22.5522 59.6072 20.0183 57.3763L19.3575 58.1268C22.1498 60.5852 26.6953 61.5932 30.2275 58.3584L29.5521 57.621ZM29.5594 57.6143L29.5522 57.6209L30.2275 58.3585L30.2347 58.3519L29.5594 57.6143ZM29.5521 57.621L29.5451 57.6279L30.249 58.3382L30.256 58.3313L29.5521 57.621ZM45.5759 41.7455L29.5521 57.621L30.2559 58.3314L46.2797 42.4559L45.5759 41.7455ZM55.1037 39.9806C52.8813 41.1366 49.8993 41.7745 45.9497 41.6012L45.9059 42.6002C49.981 42.7791 53.1482 42.125 55.5651 40.8677L55.1037 39.9806ZM59.7481 35.1465C58.8418 37.0889 57.3666 38.8034 55.1037 39.9806L55.5651 40.8677C58.0385 39.5811 59.6623 37.6952 60.6543 35.5694L59.7481 35.1465ZM60.1141 23.2338C61.0986 26.4657 61.5609 31.2618 59.7481 35.1465L60.6543 35.5694C62.6129 31.3722 62.0923 26.296 61.0707 22.9424L60.1141 23.2338ZM59.8859 22.4847L60.1141 23.2338L61.0707 22.9424L60.8425 22.1933L59.8859 22.4847ZM60.1141 23.2338L60.6977 22.7116L60.0308 21.9664L59.4473 22.4886L60.1141 23.2338ZM53.5419 29.1151L60.1141 23.2338L59.4473 22.4886L52.875 28.3699L53.5419 29.1151ZM48.1074 24.0892L52.8456 29.0865L53.5713 28.3985L48.833 23.4012L48.1074 24.0892ZM53.9504 17.0287L48.1017 23.4073L48.8387 24.0831L54.6874 17.7045L53.9504 17.0287ZM54.5209 16.4065L53.9504 17.0287L54.6874 17.7045L55.2579 17.0823L54.5209 16.4065ZM53.9504 17.0287L54.7702 17.23L55.0086 16.2588L54.1888 16.0575L53.9504 17.0287ZM38.0658 20.2605C40.6895 16.9427 45.5262 14.9602 53.9504 17.0287L54.1888 16.0575C45.5226 13.9296 40.2254 15.9175 37.2814 19.6403L38.0658 20.2605ZM35.4298 31.2699C35.0518 28.0072 35.5058 23.4978 38.0658 20.2605L37.2814 19.6403C34.4922 23.1674 34.0426 27.9855 34.4364 31.385L35.4298 31.2699ZM32.634 34.3515L35.2878 31.6798L34.5784 30.9751L31.9245 33.6468L32.634 34.3515ZM33.3411 34.3492L32.6316 33.6444L31.9269 34.3539L32.6364 35.0586L33.3411 34.3492ZM35.4591 31.5075L32.634 34.3515L33.3435 35.0563L36.1685 32.2122L35.4591 31.5075ZM35.6319 31.3335L35.4591 31.5075L36.1685 32.2122L36.3414 32.0382L35.6319 31.3335ZM35.4591 31.5075L35.4908 31.7506L36.4824 31.6211L36.4506 31.3779L35.4591 31.5075ZM52.4993 55.4168C48.2531 58.0907 43.5918 59.2154 40.5955 59.4308L40.6672 60.4283C43.8046 60.2027 48.6289 59.0358 53.0321 56.263L52.4993 55.4168ZM61.9119 42.108C60.5764 48.52 56.7455 52.743 52.4993 55.4168L53.0321 56.263C57.4568 53.4768 61.4888 49.0436 62.8909 42.3119L61.9119 42.108ZM61.3204 42.4955L62.2994 42.6994L62.5033 41.7204L61.5243 41.5165L61.3204 42.4955ZM52.4993 55.4168C56.7455 52.743 60.5764 48.52 61.9119 42.108L60.9329 41.9041C59.664 47.9965 56.034 52.0093 51.9664 54.5706L52.4993 55.4168ZM40.5955 59.4308C43.5918 59.2154 48.2531 58.0907 52.4993 55.4168L51.9664 54.5706C47.8773 57.1456 43.379 58.2281 40.5238 58.4334L40.5955 59.4308ZM41.1301 59.8937L41.0584 58.8963L40.0609 58.968L40.1327 59.9654L41.1301 59.8937ZM25.3458 53.5351C24.4401 53.5351 23.706 52.801 23.706 51.8956H22.706C22.706 53.3533 23.8879 54.5351 25.3458 54.5351V53.5351ZM26.9856 51.8956C26.9856 52.801 26.2516 53.5351 25.3458 53.5351V54.5351C26.8038 54.5351 27.9856 53.3533 27.9856 51.8956H26.9856ZM25.3458 50.2561C26.2516 50.2561 26.9856 50.9902 26.9856 51.8956H27.9856C27.9856 50.4379 26.8038 49.2561 25.3458 49.2561V50.2561ZM23.706 51.8956C23.706 50.9902 24.4401 50.2561 25.3458 50.2561V49.2561C23.8879 49.2561 22.706 50.4379 22.706 51.8956H23.706ZM25.3458 54.5351C23.8879 54.5351 22.706 53.3533 22.706 51.8956H21.706C21.706 53.9057 23.3357 55.5351 25.3458 55.5351V54.5351ZM27.9856 51.8956C27.9856 53.3533 26.8038 54.5351 25.3458 54.5351V55.5351C27.356 55.5351 28.9856 53.9057 28.9856 51.8956H27.9856ZM25.3458 49.2561C26.8038 49.2561 27.9856 50.4379 27.9856 51.8956H28.9856C28.9856 49.8855 27.356 48.2561 25.3458 48.2561V49.2561ZM22.706 51.8956C22.706 50.4379 23.8879 49.2561 25.3458 49.2561V48.2561C23.3357 48.2561 21.706 49.8855 21.706 51.8956H22.706Z" fill="white"/>
</svg>
