<svg width="75" height="75" viewBox="0 0 75 75" fill="none" xmlns="http://www.w3.org/2000/svg">
<rect width="75" height="75" rx="37.5" fill="#BD9B60"/>
<path fill-rule="evenodd" clip-rule="evenodd" d="M43.6961 15.4384L43.4282 14.9026L42.9489 15.2621L38.1862 18.8341L32.928 15.2489L32.4551 14.9265L32.1991 15.4384L29.3328 21.1711L23.1295 20.2167L22.5296 20.1244L22.5539 20.7309L22.7922 26.689L16.8091 29.0822L16.2958 29.2875L16.5515 29.7777L19.4208 35.2771L15.36 39.8157L14.9756 40.2453L15.4553 40.5651L20.4577 43.9001L18.784 50.1168L18.6268 50.7007L19.2299 50.7454L25.6818 51.2233L27.1113 57.1794L27.2433 57.7296L27.773 57.5309L33.5027 55.3823L37.5667 60.1634L37.9593 60.6254L38.3381 60.152L42.1538 55.3823L48.1284 57.5332L48.6537 57.7223L48.784 57.1794L50.2208 51.1927L56.2025 50.2356L56.7408 50.1495L56.6086 49.6206L55.1814 43.9116L60.4311 40.5709L60.9426 40.2453L60.5256 39.8052L56.2357 35.277L59.3357 29.7925L59.6344 29.264L59.0585 29.0721L53.3418 27.1665V20.7109V20.1281L52.7658 20.2167L46.5625 21.1711L43.6961 15.4384ZM30.0642 21.9443L32.8376 16.3976L37.9184 19.8618L38.2139 20.0633L38.5001 19.8487L43.0697 16.4215L45.831 21.9443L45.994 22.2703L46.3543 22.2149L52.3418 21.2937V27.5269V27.8873L52.6837 28.0012L58.1665 29.8288L55.1834 35.1066L55.0016 35.4283L55.2557 35.6965L59.3827 40.0527L54.3404 43.2614L54.0364 43.4549L54.1238 43.8045L55.5063 49.3343L49.7335 50.2579L49.4041 50.3106L49.3263 50.635L47.9419 56.4032L42.1561 54.3203L41.8197 54.1992L41.5963 54.4784L37.9359 59.0538L34.0371 54.4669L33.8095 54.1992L33.4805 54.3226L27.9516 56.3959L26.569 50.635L26.4838 50.28L26.1197 50.253L19.9068 49.7928L21.5167 43.8132L21.6101 43.4664L21.3113 43.2672L16.4896 40.0528L20.3968 35.686L20.6275 35.4281L20.4674 35.1213L17.6939 29.8053L23.4916 27.4862L23.8196 27.355L23.8055 27.002L23.5773 21.2974L29.541 22.2149L29.9012 22.2703L30.0642 21.9443ZM34.7585 42.5305L45.6135 32.1803L44.9234 31.4566L34.4333 41.4588L30.9915 37.7875L30.262 38.4715L34.0487 42.5106L34.3935 42.8784L34.7585 42.5305ZM51.0848 37.3722C51.0848 44.6275 45.2032 50.5091 37.9479 50.5091C30.6927 50.5091 24.8111 44.6275 24.8111 37.3722C24.8111 30.117 30.6927 24.2354 37.9479 24.2354C45.2032 24.2354 51.0848 30.117 51.0848 37.3722ZM52.0848 37.3722C52.0848 45.1798 45.7555 51.5091 37.9479 51.5091C30.1404 51.5091 23.8111 45.1798 23.8111 37.3722C23.8111 29.5647 30.1404 23.2354 37.9479 23.2354C45.7555 23.2354 52.0848 29.5647 52.0848 37.3722Z" fill="white"/>
<path d="M43.4282 14.9026L43.8754 14.679L43.6075 14.1431L43.1282 14.5026L43.4282 14.9026ZM43.6961 15.4384L44.1434 15.2148L44.1434 15.2148L43.6961 15.4384ZM42.9489 15.2621L43.2489 15.6621L43.2489 15.6621L42.9489 15.2621ZM38.1862 18.8341L37.9045 19.2472L38.2001 19.4487L38.4862 19.2341L38.1862 18.8341ZM32.928 15.2489L32.6463 15.6621L32.6463 15.6621L32.928 15.2489ZM32.4551 14.9265L32.7367 14.5134L32.2638 14.1909L32.0079 14.7029L32.4551 14.9265ZM32.1991 15.4384L31.7519 15.2148L31.7519 15.2148L32.1991 15.4384ZM29.3328 21.1711L29.2568 21.6653L29.617 21.7207L29.78 21.3947L29.3328 21.1711ZM23.1295 20.2167L23.0535 20.7109L23.0535 20.7109L23.1295 20.2167ZM22.5296 20.1244L22.6056 19.6303L22.0058 19.538L22.03 20.1444L22.5296 20.1244ZM22.5539 20.7309L23.0535 20.7109L23.0535 20.7109L22.5539 20.7309ZM22.7922 26.689L22.9779 27.1532L23.3059 27.022L23.2918 26.669L22.7922 26.689ZM16.8091 29.0822L16.6234 28.618L16.6234 28.618L16.8091 29.0822ZM16.2958 29.2875L16.1101 28.8233L15.5968 29.0286L15.8525 29.5188L16.2958 29.2875ZM16.5515 29.7777L16.9948 29.5464L16.9948 29.5464L16.5515 29.7777ZM19.4208 35.2771L19.7934 35.6105L20.0242 35.3526L19.8641 35.0458L19.4208 35.2771ZM15.36 39.8157L15.7326 40.149L15.7326 40.149L15.36 39.8157ZM14.9756 40.2453L14.603 39.9119L14.2186 40.3415L14.6982 40.6613L14.9756 40.2453ZM15.4553 40.5651L15.1779 40.9811L15.1779 40.9811L15.4553 40.5651ZM20.4577 43.9001L20.9406 44.03L21.0339 43.6833L20.7351 43.484L20.4577 43.9001ZM18.784 50.1168L19.2668 50.2468L19.2668 50.2468L18.784 50.1168ZM18.6268 50.7007L18.144 50.5708L17.9868 51.1547L18.5899 51.1994L18.6268 50.7007ZM19.2299 50.7454L19.193 51.244L19.193 51.244L19.2299 50.7454ZM25.6818 51.2233L26.168 51.1066L26.0828 50.7517L25.7187 50.7247L25.6818 51.2233ZM27.1113 57.1794L27.5975 57.0627L27.5975 57.0627L27.1113 57.1794ZM27.2433 57.7296L26.7571 57.8462L26.8891 58.3964L27.4188 58.1977L27.2433 57.7296ZM27.773 57.5309L27.9486 57.9991L27.9486 57.9991L27.773 57.5309ZM33.5027 55.3823L33.8836 55.0585L33.6561 54.7908L33.3271 54.9141L33.5027 55.3823ZM37.5667 60.1634L37.9476 59.8396L37.9476 59.8396L37.5667 60.1634ZM37.9593 60.6254L37.5783 60.9492L37.971 61.4112L38.3498 60.9377L37.9593 60.6254ZM38.3381 60.152L37.9476 59.8396L37.9476 59.8396L38.3381 60.152ZM42.1538 55.3823L42.3231 54.9119L41.9867 54.7908L41.7634 55.07L42.1538 55.3823ZM48.1284 57.5332L48.2978 57.0627L48.2978 57.0627L48.1284 57.5332ZM48.6537 57.7223L48.4843 58.1927L49.0096 58.3818L49.1399 57.839L48.6537 57.7223ZM48.784 57.1794L48.2978 57.0627L48.2978 57.0627L48.784 57.1794ZM50.2208 51.1927L50.1418 50.699L49.8125 50.7517L49.7346 51.076L50.2208 51.1927ZM56.2025 50.2356L56.1235 49.7419L56.1235 49.7419L56.2025 50.2356ZM56.7408 50.1495L56.8198 50.6432L57.3581 50.5571L57.2259 50.0282L56.7408 50.1495ZM56.6086 49.6206L56.1235 49.7419L56.1235 49.7419L56.6086 49.6206ZM55.1814 43.9116L54.9129 43.4898L54.6089 43.6833L54.6963 44.0329L55.1814 43.9116ZM60.4311 40.5709L60.1626 40.149L60.1626 40.149L60.4311 40.5709ZM60.9426 40.2453L61.2111 40.6672L61.7226 40.3417L61.3056 39.9015L60.9426 40.2453ZM60.5256 39.8052L60.1626 40.149L60.1626 40.149L60.5256 39.8052ZM56.2357 35.277L55.8005 35.031L55.6187 35.3526L55.8728 35.6209L56.2357 35.277ZM59.3357 29.7925L59.771 30.0385L59.771 30.0385L59.3357 29.7925ZM59.6344 29.264L60.0697 29.5101L60.3683 28.9816L59.7925 28.7897L59.6344 29.264ZM59.0585 29.0721L59.2166 28.5977L59.2166 28.5977L59.0585 29.0721ZM53.3418 27.1665H52.8418V27.5269L53.1837 27.6408L53.3418 27.1665ZM53.3418 20.1281H53.8418V19.5453L53.2657 19.6339L53.3418 20.1281ZM52.7658 20.2167L52.8418 20.7109L52.8418 20.7109L52.7658 20.2167ZM46.5625 21.1711L46.1153 21.3947L46.2783 21.7207L46.6385 21.6653L46.5625 21.1711ZM32.8376 16.3976L33.1192 15.9845L32.6463 15.6621L32.3903 16.174L32.8376 16.3976ZM30.0642 21.9443L30.5114 22.1679L30.5114 22.1679L30.0642 21.9443ZM37.9184 19.8618L38.2001 19.4487L38.2001 19.4487L37.9184 19.8618ZM38.2139 20.0633L37.9323 20.4764L38.2278 20.6779L38.5139 20.4633L38.2139 20.0633ZM38.5001 19.8487L38.8001 20.2487L38.8001 20.2487L38.5001 19.8487ZM43.0697 16.4215L43.5169 16.1979L43.2489 15.6621L42.7697 16.0215L43.0697 16.4215ZM45.831 21.9443L45.3838 22.1679L45.3838 22.1679L45.831 21.9443ZM45.994 22.2703L45.5468 22.4939L45.7098 22.8199L46.0701 22.7645L45.994 22.2703ZM46.3543 22.2149L46.2783 21.7207L46.2783 21.7207L46.3543 22.2149ZM52.3418 21.2937H52.8418V20.7109L52.2658 20.7995L52.3418 21.2937ZM52.3418 27.8873H51.8418V28.2476L52.1837 28.3616L52.3418 27.8873ZM52.6837 28.0012L52.8418 27.5269L52.8418 27.5269L52.6837 28.0012ZM58.1665 29.8288L58.6017 30.0749L58.9004 29.5464L58.3246 29.3545L58.1665 29.8288ZM55.1834 35.1066L54.7481 34.8606L54.7481 34.8606L55.1834 35.1066ZM55.0016 35.4283L54.5663 35.1822L54.3845 35.5039L54.6386 35.7721L55.0016 35.4283ZM55.2557 35.6965L54.8927 36.0404L54.8927 36.0404L55.2557 35.6965ZM59.3827 40.0527L59.6511 40.4746L60.1626 40.149L59.7456 39.7089L59.3827 40.0527ZM54.3404 43.2614L54.072 42.8396L54.072 42.8396L54.3404 43.2614ZM54.0364 43.4549L53.768 43.0331L53.4639 43.2265L53.5513 43.5762L54.0364 43.4549ZM54.1238 43.8045L53.6387 43.9258L53.6387 43.9258L54.1238 43.8045ZM55.5063 49.3343L55.5853 49.828L56.1235 49.7419L55.9913 49.213L55.5063 49.3343ZM49.7335 50.2579L49.8125 50.7517L49.8125 50.7517L49.7335 50.2579ZM49.4041 50.3106L49.3251 49.8169L48.9958 49.8696L48.9179 50.194L49.4041 50.3106ZM49.3263 50.635L49.8125 50.7517L49.8125 50.7517L49.3263 50.635ZM47.9419 56.4032L47.7725 56.8737L48.2978 57.0627L48.4281 56.5199L47.9419 56.4032ZM42.1561 54.3203L42.3254 53.8499L42.3254 53.8499L42.1561 54.3203ZM41.8197 54.1992L41.989 53.7288L41.6526 53.6076L41.4292 53.8869L41.8197 54.1992ZM41.5963 54.4784L41.2058 54.1661L41.2058 54.1661L41.5963 54.4784ZM37.9359 59.0538L37.555 59.3777L37.9476 59.8396L38.3264 59.3662L37.9359 59.0538ZM34.0371 54.4669L34.418 54.1431L34.418 54.1431L34.0371 54.4669ZM33.8095 54.1992L34.1905 53.8754L33.9629 53.6077L33.6339 53.7311L33.8095 54.1992ZM33.4805 54.3226L33.6561 54.7908L33.6561 54.7908L33.4805 54.3226ZM27.9516 56.3959L27.4654 56.5126L27.5975 57.0627L28.1272 56.8641L27.9516 56.3959ZM26.569 50.635L27.0552 50.5183L27.0552 50.5183L26.569 50.635ZM26.4838 50.28L26.97 50.1633L26.8848 49.8083L26.5207 49.7814L26.4838 50.28ZM26.1197 50.253L26.1567 49.7544L26.1567 49.7544L26.1197 50.253ZM19.9068 49.7928L19.424 49.6628L19.2668 50.2468L19.8699 50.2915L19.9068 49.7928ZM21.5167 43.8132L21.0339 43.6833L21.0339 43.6833L21.5167 43.8132ZM21.6101 43.4664L22.0929 43.5964L22.1863 43.2496L21.8875 43.0504L21.6101 43.4664ZM21.3113 43.2672L21.0339 43.6833L21.0339 43.6833L21.3113 43.2672ZM16.4896 40.0528L16.117 39.7194L15.7326 40.149L16.2123 40.4688L16.4896 40.0528ZM20.3968 35.686L20.7694 36.0194L20.7694 36.0194L20.3968 35.686ZM20.6275 35.4281L21.0001 35.7615L21.2309 35.5037L21.0708 35.1969L20.6275 35.4281ZM20.4674 35.1213L20.0242 35.3526L20.0242 35.3526L20.4674 35.1213ZM17.6939 29.8053L17.5082 29.3411L16.9948 29.5464L17.2506 30.0366L17.6939 29.8053ZM23.4916 27.4862L23.3059 27.022L23.3059 27.022L23.4916 27.4862ZM23.8196 27.355L24.0053 27.8193L24.3334 27.6881L24.3192 27.335L23.8196 27.355ZM23.8055 27.002L23.3059 27.022L23.3059 27.022L23.8055 27.002ZM23.5773 21.2974L23.6534 20.8032L23.0535 20.7109L23.0777 21.3174L23.5773 21.2974ZM29.541 22.2149L29.617 21.7207L29.617 21.7207L29.541 22.2149ZM29.9012 22.2703L29.8252 22.7645L30.1854 22.8199L30.3484 22.4939L29.9012 22.2703ZM45.6135 32.1803L45.9586 32.5422L46.3204 32.1971L45.9754 31.8352L45.6135 32.1803ZM34.7585 42.5305L34.4134 42.1686L34.4134 42.1686L34.7585 42.5305ZM44.9234 31.4566L45.2853 31.1115L44.9403 30.7496L44.5784 31.0947L44.9234 31.4566ZM34.4333 41.4588L34.0686 41.8007L34.4134 42.1686L34.7784 41.8206L34.4333 41.4588ZM30.9915 37.7875L31.3563 37.4456L31.0143 37.0808L30.6496 37.4228L30.9915 37.7875ZM30.262 38.4715L29.92 38.1067L29.5553 38.4487L29.8972 38.8134L30.262 38.4715ZM34.0487 42.5106L33.6839 42.8525L33.6839 42.8525L34.0487 42.5106ZM34.3935 42.8784L34.0288 43.2204L34.3736 43.5883L34.7386 43.2403L34.3935 42.8784ZM42.981 15.1262L43.2489 15.6621L44.1434 15.2148L43.8754 14.679L42.981 15.1262ZM43.2489 15.6621L43.7282 15.3026L43.1282 14.5026L42.6489 14.8621L43.2489 15.6621ZM38.4862 19.2341L43.2489 15.6621L42.6489 14.8621L37.8862 18.4341L38.4862 19.2341ZM32.6463 15.6621L37.9045 19.2472L38.4679 18.421L33.2097 14.8358L32.6463 15.6621ZM32.1734 15.3396L32.6463 15.6621L33.2097 14.8358L32.7367 14.5134L32.1734 15.3396ZM32.6463 15.6621L32.9023 15.1501L32.0079 14.7029L31.7519 15.2148L32.6463 15.6621ZM29.78 21.3947L32.6463 15.6621L31.7519 15.2148L28.8856 20.9475L29.78 21.3947ZM23.0535 20.7109L29.2568 21.6653L29.4088 20.6769L23.2055 19.7225L23.0535 20.7109ZM22.4536 20.6186L23.0535 20.7109L23.2055 19.7225L22.6056 19.6303L22.4536 20.6186ZM23.0535 20.7109L23.0292 20.1045L22.03 20.1444L22.0543 20.7509L23.0535 20.7109ZM23.2918 26.669L23.0535 20.7109L22.0543 20.7509L22.2926 26.709L23.2918 26.669ZM16.9948 29.5464L22.9779 27.1532L22.6065 26.2247L16.6234 28.618L16.9948 29.5464ZM16.4815 29.7518L16.9948 29.5464L16.6234 28.618L16.1101 28.8233L16.4815 29.7518ZM16.9948 29.5464L16.7391 29.0562L15.8525 29.5188L16.1082 30.009L16.9948 29.5464ZM19.8641 35.0458L16.9948 29.5464L16.1082 30.009L18.9775 35.5084L19.8641 35.0458ZM15.7326 40.149L19.7934 35.6105L19.0482 34.9437L14.9874 39.4823L15.7326 40.149ZM15.3482 40.5787L15.7326 40.149L14.9874 39.4823L14.603 39.9119L15.3482 40.5787ZM15.7326 40.149L15.2529 39.8293L14.6982 40.6613L15.1779 40.9811L15.7326 40.149ZM20.7351 43.484L15.7326 40.149L15.1779 40.9811L20.1804 44.3161L20.7351 43.484ZM19.2668 50.2468L20.9406 44.03L19.9749 43.7701L18.3012 49.9868L19.2668 50.2468ZM19.1096 50.8307L19.2668 50.2468L18.3012 49.9868L18.144 50.5708L19.1096 50.8307ZM19.2668 50.2468L18.6637 50.2021L18.5899 51.1994L19.193 51.244L19.2668 50.2468ZM25.7187 50.7247L19.2668 50.2468L19.193 51.244L25.6449 51.722L25.7187 50.7247ZM27.5975 57.0627L26.168 51.1066L25.1956 51.34L26.6251 57.2961L27.5975 57.0627ZM27.7295 57.6129L27.5975 57.0627L26.6251 57.2961L26.7571 57.8462L27.7295 57.6129ZM27.5975 57.0627L27.0677 57.2614L27.4188 58.1977L27.9486 57.9991L27.5975 57.0627ZM33.3271 54.9141L27.5975 57.0627L27.9486 57.9991L33.6782 55.8505L33.3271 54.9141ZM37.9476 59.8396L33.8836 55.0585L33.1217 55.7061L37.1857 60.4873L37.9476 59.8396ZM38.3403 60.3016L37.9476 59.8396L37.1857 60.4873L37.5783 60.9492L38.3403 60.3016ZM37.9476 59.8396L37.5689 60.3131L38.3498 60.9377L38.7285 60.4643L37.9476 59.8396ZM41.7634 55.07L37.9476 59.8396L38.7285 60.4643L42.5442 55.6947L41.7634 55.07ZM48.2978 57.0627L42.3231 54.9119L41.9844 55.8528L47.9591 58.0036L48.2978 57.0627ZM48.8231 57.2518L48.2978 57.0627L47.9591 58.0036L48.4843 58.1927L48.8231 57.2518ZM48.2978 57.0627L48.1675 57.6056L49.1399 57.839L49.2702 57.2961L48.2978 57.0627ZM49.7346 51.076L48.2978 57.0627L49.2702 57.2961L50.707 51.3094L49.7346 51.076ZM56.1235 49.7419L50.1418 50.699L50.2998 51.6864L56.2815 50.7293L56.1235 49.7419ZM56.6618 49.6558L56.1235 49.7419L56.2815 50.7293L56.8198 50.6432L56.6618 49.6558ZM56.1235 49.7419L56.2558 50.2708L57.2259 50.0282L57.0937 49.4994L56.1235 49.7419ZM54.6963 44.0329L56.1235 49.7419L57.0937 49.4994L55.6664 43.7903L54.6963 44.0329ZM60.1626 40.149L54.9129 43.4898L55.4498 44.3334L60.6995 40.9927L60.1626 40.149ZM60.6742 39.8235L60.1626 40.149L60.6995 40.9927L61.2111 40.6672L60.6742 39.8235ZM60.1626 40.149L60.5796 40.5892L61.3056 39.9015L60.8886 39.4613L60.1626 40.149ZM55.8728 35.6209L60.1626 40.149L60.8886 39.4613L56.5987 34.9331L55.8728 35.6209ZM58.9004 29.5464L55.8005 35.031L56.671 35.523L59.771 30.0385L58.9004 29.5464ZM59.1991 29.018L58.9004 29.5464L59.771 30.0385L60.0697 29.5101L59.1991 29.018ZM58.9004 29.5464L59.4763 29.7384L59.7925 28.7897L59.2166 28.5977L58.9004 29.5464ZM53.1837 27.6408L58.9004 29.5464L59.2166 28.5977L53.4999 26.6922L53.1837 27.6408ZM52.8418 20.7109V27.1665H53.8418V20.7109H52.8418ZM52.8418 20.1281V20.7109H53.8418V20.1281H52.8418ZM52.8418 20.7109L53.4178 20.6223L53.2657 19.6339L52.6897 19.7225L52.8418 20.7109ZM46.6385 21.6653L52.8418 20.7109L52.6897 19.7225L46.4864 20.6769L46.6385 21.6653ZM43.2489 15.6621L46.1153 21.3947L47.0097 20.9475L44.1434 15.2148L43.2489 15.6621ZM32.3903 16.174L29.617 21.7207L30.5114 22.1679L33.2848 16.6212L32.3903 16.174ZM38.2001 19.4487L33.1192 15.9845L32.5559 16.8107L37.6367 20.2749L38.2001 19.4487ZM38.4956 19.6502L38.2001 19.4487L37.6367 20.2749L37.9323 20.4764L38.4956 19.6502ZM38.2001 19.4487L37.9139 19.6633L38.5139 20.4633L38.8001 20.2487L38.2001 19.4487ZM42.7697 16.0215L38.2001 19.4487L38.8001 20.2487L43.3697 16.8215L42.7697 16.0215ZM46.2783 21.7207L43.5169 16.1979L42.6224 16.6451L45.3838 22.1679L46.2783 21.7207ZM46.4413 22.0467L46.2783 21.7207L45.3838 22.1679L45.5468 22.4939L46.4413 22.0467ZM46.2783 21.7207L45.918 21.7761L46.0701 22.7645L46.4303 22.7091L46.2783 21.7207ZM52.2658 20.7995L46.2783 21.7207L46.4303 22.7091L52.4178 21.7879L52.2658 20.7995ZM52.8418 27.5269V21.2937H51.8418V27.5269H52.8418ZM52.8418 27.8873V27.5269H51.8418V27.8873H52.8418ZM52.8418 27.5269L52.4999 27.4129L52.1837 28.3616L52.5256 28.4756L52.8418 27.5269ZM58.3246 29.3545L52.8418 27.5269L52.5256 28.4756L58.0083 30.3032L58.3246 29.3545ZM55.6187 35.3526L58.6017 30.0749L57.7312 29.5828L54.7481 34.8606L55.6187 35.3526ZM55.4368 35.6743L55.6187 35.3526L54.7481 34.8606L54.5663 35.1822L55.4368 35.6743ZM55.6187 35.3526L55.3645 35.0844L54.6386 35.7721L54.8927 36.0404L55.6187 35.3526ZM59.7456 39.7089L55.6187 35.3526L54.8927 36.0404L59.0197 40.3966L59.7456 39.7089ZM54.6089 43.6833L59.6511 40.4746L59.1142 39.6309L54.072 42.8396L54.6089 43.6833ZM54.3048 43.8767L54.6089 43.6833L54.072 42.8396L53.768 43.0331L54.3048 43.8767ZM54.6089 43.6833L54.5215 43.3336L53.5513 43.5762L53.6387 43.9258L54.6089 43.6833ZM55.9913 49.213L54.6089 43.6833L53.6387 43.9258L55.0212 49.4556L55.9913 49.213ZM49.8125 50.7517L55.5853 49.828L55.4273 48.8406L49.6545 49.7642L49.8125 50.7517ZM49.4831 50.8044L49.8125 50.7517L49.6545 49.7642L49.3251 49.8169L49.4831 50.8044ZM49.8125 50.7517L49.8903 50.4273L48.9179 50.194L48.8401 50.5183L49.8125 50.7517ZM48.4281 56.5199L49.8125 50.7517L48.8401 50.5183L47.4557 56.2865L48.4281 56.5199ZM41.9867 54.7908L47.7725 56.8737L48.1113 55.9328L42.3254 53.8499L41.9867 54.7908ZM41.6503 54.6696L41.9867 54.7908L42.3254 53.8499L41.989 53.7288L41.6503 54.6696ZM41.9867 54.7908L42.2101 54.5115L41.4292 53.8869L41.2058 54.1661L41.9867 54.7908ZM38.3264 59.3662L41.9867 54.7908L41.2058 54.1661L37.5455 58.7415L38.3264 59.3662ZM33.6561 54.7908L37.555 59.3777L38.3169 58.73L34.418 54.1431L33.6561 54.7908ZM33.4285 54.5231L33.6561 54.7908L34.418 54.1431L34.1905 53.8754L33.4285 54.5231ZM33.6561 54.7908L33.9851 54.6674L33.6339 53.7311L33.305 53.8544L33.6561 54.7908ZM28.1272 56.8641L33.6561 54.7908L33.305 53.8544L27.7761 55.9278L28.1272 56.8641ZM26.0828 50.7517L27.4654 56.5126L28.4378 56.2792L27.0552 50.5183L26.0828 50.7517ZM25.9976 50.3967L26.0828 50.7517L27.0552 50.5183L26.97 50.1633L25.9976 50.3967ZM26.0828 50.7517L26.4469 50.7786L26.5207 49.7814L26.1567 49.7544L26.0828 50.7517ZM19.8699 50.2915L26.0828 50.7517L26.1567 49.7544L19.9438 49.2942L19.8699 50.2915ZM21.0339 43.6833L19.424 49.6628L20.3897 49.9228L21.9995 43.9432L21.0339 43.6833ZM21.1273 43.3365L21.0339 43.6833L21.9995 43.9432L22.0929 43.5964L21.1273 43.3365ZM21.0339 43.6833L21.3328 43.8825L21.8875 43.0504L21.5886 42.8512L21.0339 43.6833ZM16.2123 40.4688L21.0339 43.6833L21.5886 42.8512L16.767 39.6368L16.2123 40.4688ZM20.0242 35.3526L16.117 39.7194L16.8623 40.3862L20.7694 36.0194L20.0242 35.3526ZM20.2549 35.0947L20.0242 35.3526L20.7694 36.0194L21.0001 35.7615L20.2549 35.0947ZM20.0242 35.3526L20.1842 35.6594L21.0708 35.1969L20.9107 34.8901L20.0242 35.3526ZM17.2506 30.0366L20.0242 35.3526L20.9107 34.8901L18.1372 29.574L17.2506 30.0366ZM23.3059 27.022L17.5082 29.3411L17.8796 30.2696L23.6773 27.9505L23.3059 27.022ZM23.6339 26.8908L23.3059 27.022L23.6773 27.9505L24.0053 27.8193L23.6339 26.8908ZM23.3059 27.022L23.32 27.375L24.3192 27.335L24.3051 26.982L23.3059 27.022ZM23.0777 21.3174L23.3059 27.022L24.3051 26.982L24.0769 21.2774L23.0777 21.3174ZM29.617 21.7207L23.6534 20.8032L23.5013 21.7916L29.4649 22.7091L29.617 21.7207ZM29.9772 21.7761L29.617 21.7207L29.4649 22.7091L29.8252 22.7645L29.9772 21.7761ZM29.617 21.7207L29.454 22.0467L30.3484 22.4939L30.5114 22.1679L29.617 21.7207ZM45.2685 31.8184L34.4134 42.1686L35.1035 42.8923L45.9586 32.5422L45.2685 31.8184ZM44.5616 31.8016L45.2517 32.5253L45.9754 31.8352L45.2853 31.1115L44.5616 31.8016ZM34.7784 41.8206L45.2685 31.8184L44.5784 31.0947L34.0883 41.0969L34.7784 41.8206ZM30.6268 38.1295L34.0686 41.8007L34.7981 41.1168L31.3563 37.4456L30.6268 38.1295ZM30.604 38.8362L31.3335 38.1523L30.6496 37.4228L29.92 38.1067L30.604 38.8362ZM34.4134 42.1686L30.6268 38.1295L29.8972 38.8134L33.6839 42.8525L34.4134 42.1686ZM34.7583 42.5365L34.4134 42.1686L33.6839 42.8525L34.0288 43.2204L34.7583 42.5365ZM34.4134 42.1686L34.0485 42.5166L34.7386 43.2403L35.1035 42.8923L34.4134 42.1686ZM37.9479 51.0091C45.4794 51.0091 51.5848 44.9036 51.5848 37.3722H50.5848C50.5848 44.3514 44.9271 50.0091 37.9479 50.0091V51.0091ZM24.3111 37.3722C24.3111 44.9036 30.4165 51.0091 37.9479 51.0091V50.0091C30.9688 50.0091 25.3111 44.3514 25.3111 37.3722H24.3111ZM37.9479 23.7354C30.4165 23.7354 24.3111 29.8408 24.3111 37.3722H25.3111C25.3111 30.3931 30.9688 24.7354 37.9479 24.7354V23.7354ZM51.5848 37.3722C51.5848 29.8408 45.4794 23.7354 37.9479 23.7354V24.7354C44.9271 24.7354 50.5848 30.3931 50.5848 37.3722H51.5848ZM37.9479 52.0091C46.0316 52.0091 52.5848 45.4559 52.5848 37.3722H51.5848C51.5848 44.9036 45.4794 51.0091 37.9479 51.0091V52.0091ZM23.3111 37.3722C23.3111 45.4559 29.8642 52.0091 37.9479 52.0091V51.0091C30.4165 51.0091 24.3111 44.9036 24.3111 37.3722H23.3111ZM37.9479 22.7354C29.8642 22.7354 23.3111 29.2885 23.3111 37.3722H24.3111C24.3111 29.8408 30.4165 23.7354 37.9479 23.7354V22.7354ZM52.5848 37.3722C52.5848 29.2885 46.0316 22.7354 37.9479 22.7354V23.7354C45.4794 23.7354 51.5848 29.8408 51.5848 37.3722H52.5848Z" fill="white"/>
</svg>
