<svg width="58" height="58" viewBox="0 0 58 58" fill="none" xmlns="http://www.w3.org/2000/svg">
<rect width="58" height="58" rx="29" fill="#BD9B60"/>
<path fill-rule="evenodd" clip-rule="evenodd" d="M40.4286 24.4571C40.4286 18.1143 35.3143 13 29 13C22.6857 13 17.5714 18.1143 17.5714 24.4286V24.4571C15.0286 24.6 13 26.7143 13 29.2857V29.8571C13 32.5429 15.1714 34.7143 17.8571 34.7143H18.1143L20.1429 37.9429C21.5714 40.2286 24 41.5714 26.6857 41.5714H27.0857C27.3429 42.5429 28.2286 43.2857 29.2857 43.2857C30.5429 43.2857 31.5714 42.2571 31.5714 41C31.5714 39.7429 30.5429 38.7143 29.2857 38.7143C28.2286 38.7143 27.3429 39.4571 27.0857 40.4286H26.6857C24.4 40.4286 22.3143 39.2571 21.1143 37.3143L19.4571 34.7143H19.8571C20.4857 34.7143 21 34.2 21 33.5714V25.5714C21 24.9429 20.4857 24.4286 19.8571 24.4286H18.7143C18.7143 18.7429 23.3143 14.1429 29 14.1429C34.6857 14.1429 39.2857 18.7429 39.2857 24.4286H38.1429C37.5143 24.4286 37 24.9429 37 25.5714V33.5714C37 34.2 37.5143 34.7143 38.1429 34.7143H40.1429C42.8286 34.7143 45 32.5429 45 29.8571V29.2857C45 26.7143 42.9714 24.6 40.4286 24.4571ZM29.2857 39.8571C29.9143 39.8571 30.4286 40.3714 30.4286 41C30.4286 41.6286 29.9143 42.1429 29.2857 42.1429C28.6571 42.1429 28.1429 41.6286 28.1429 41C28.1429 40.3714 28.6571 39.8571 29.2857 39.8571ZM19.8571 25.5714V33.5714H17.8571C15.8 33.5714 14.1429 31.9143 14.1429 29.8571V29.2857C14.1429 27.2286 15.8 25.5714 17.8571 25.5714H19.8571ZM43.8571 29.8571C43.8571 31.9143 42.2 33.5714 40.1429 33.5714H38.1429V25.5714H40.1429C42.2 25.5714 43.8571 27.2286 43.8571 29.2857V29.8571ZM33.7428 17.3143C33.6857 17.2857 33.5999 17.2286 33.5142 17.1714L33.5142 17.1714C33.4285 17.1143 33.3428 17.0571 33.2857 17.0286C33.0285 16.8571 32.6571 16.9428 32.5142 17.2286C32.3714 17.5143 32.4285 17.8286 32.7142 18C32.7714 18.0286 32.8571 18.0857 32.9428 18.1428L32.9428 18.1429C33.0285 18.2 33.1142 18.2571 33.1999 18.2857C33.2857 18.3428 33.3999 18.3714 33.4857 18.3714C33.6857 18.3714 33.8571 18.2857 33.9714 18.0857C34.1142 17.8286 34.0285 17.4857 33.7428 17.3143ZM22.7143 18.7429C24.2857 16.9143 26.5715 15.8572 29 15.8572C29.6 15.8572 30.2 15.9143 30.8 16.0572C31.0857 16.1429 31.3143 16.4572 31.2286 16.7429C31.1429 17.0286 30.8572 17.2286 30.5429 17.1714C30.0286 17.0572 29.5143 17 29 17C26.9143 17 24.9429 17.9143 23.5715 19.4857C23.4572 19.6286 23.3143 19.6857 23.1429 19.6857C23 19.6857 22.8857 19.6286 22.7715 19.5429C22.5429 19.3429 22.5143 18.9714 22.7143 18.7429Z" fill="white"/>
<path d="M40.4286 24.4571H40.0286V24.8353L40.4061 24.8565L40.4286 24.4571ZM17.5714 24.4571L17.5939 24.8565L17.9714 24.8353V24.4571H17.5714ZM18.1143 34.7143L18.453 34.5015L18.3354 34.3143H18.1143V34.7143ZM20.1429 37.9429L20.4821 37.7309L20.4816 37.7301L20.1429 37.9429ZM27.0857 41.5714L27.4724 41.4691L27.3936 41.1714H27.0857V41.5714ZM27.0857 40.4286V40.8286H27.3936L27.4724 40.5309L27.0857 40.4286ZM21.1143 37.3143L21.4546 37.1041L21.4516 37.0993L21.1143 37.3143ZM19.4571 34.7143V34.3143H18.7279L19.1198 34.9293L19.4571 34.7143ZM18.7143 24.4286H18.3143V24.8286H18.7143V24.4286ZM39.2857 24.4286V24.8286H39.6857V24.4286H39.2857ZM19.8571 33.5714V33.9714H20.2571V33.5714H19.8571ZM19.8571 25.5714H20.2571V25.1714H19.8571V25.5714ZM38.1429 33.5714H37.7429V33.9714H38.1429V33.5714ZM38.1429 25.5714V25.1714H37.7429V25.5714H38.1429ZM33.5142 17.1714L33.2742 17.4914L33.2831 17.4981L33.2924 17.5042L33.5142 17.1714ZM33.7428 17.3143L33.9486 16.9713L33.9354 16.9634L33.9217 16.9565L33.7428 17.3143ZM33.5142 17.1714L33.7542 16.8514L33.7453 16.8447L33.7361 16.8386L33.5142 17.1714ZM33.2857 17.0286L33.0638 17.3614L33.0845 17.3752L33.1068 17.3863L33.2857 17.0286ZM32.7142 18L32.5084 18.343L32.5216 18.3509L32.5353 18.3577L32.7142 18ZM32.9428 18.1428L33.1694 17.8132L33.1647 17.81L32.9428 18.1428ZM32.9428 18.1429L32.7162 18.4725L32.7209 18.4757L32.9428 18.1429ZM33.1999 18.2857L33.4218 17.9529L33.3772 17.9232L33.3264 17.9062L33.1999 18.2857ZM33.9714 18.0857L34.3187 18.2842L34.321 18.28L33.9714 18.0857ZM22.7143 18.7429L23.0154 19.0063L23.0177 19.0036L22.7143 18.7429ZM30.8 16.0572L30.915 15.674L30.9039 15.6707L30.8927 15.668L30.8 16.0572ZM30.5429 17.1714L30.4561 17.5619L30.4637 17.5636L30.4713 17.565L30.5429 17.1714ZM23.5715 19.4857L23.2701 19.2227L23.2645 19.2292L23.2591 19.2358L23.5715 19.4857ZM22.7715 19.5429L22.5081 19.8439L22.5194 19.8538L22.5315 19.8629L22.7715 19.5429ZM29 13.4C35.0927 13.4 40.0286 18.3345 40.0286 24.4571H40.8286C40.8286 17.894 35.5359 12.6 29 12.6V13.4ZM17.9714 24.4286C17.9714 18.3352 22.9066 13.4 29 13.4V12.6C22.4648 12.6 17.1714 17.8934 17.1714 24.4286H17.9714ZM17.9714 24.4571V24.4286H17.1714V24.4571H17.9714ZM13.4 29.2857C13.4 26.9285 15.2609 24.9876 17.5939 24.8565L17.549 24.0578C14.7963 24.2124 12.6 26.5001 12.6 29.2857H13.4ZM13.4 29.8571V29.2857H12.6V29.8571H13.4ZM17.8571 34.3143C15.3923 34.3143 13.4 32.3219 13.4 29.8571H12.6C12.6 32.7638 14.9505 35.1143 17.8571 35.1143V34.3143ZM18.1143 34.3143H17.8571V35.1143H18.1143V34.3143ZM20.4816 37.7301L18.453 34.5015L17.7756 34.9271L19.8042 38.1557L20.4816 37.7301ZM26.6857 41.1714C24.1379 41.1714 21.8375 39.8996 20.4821 37.7309L19.8037 38.1549C21.3054 40.5576 23.8621 41.9714 26.6857 41.9714V41.1714ZM27.0857 41.1714H26.6857V41.9714H27.0857V41.1714ZM29.2857 42.8857C28.421 42.8857 27.686 42.2759 27.4724 41.4691L26.699 41.6738C26.9998 42.8098 28.0361 43.6857 29.2857 43.6857V42.8857ZM31.1714 41C31.1714 42.0362 30.3219 42.8857 29.2857 42.8857V43.6857C30.7638 43.6857 31.9714 42.4781 31.9714 41H31.1714ZM29.2857 39.1143C30.3219 39.1143 31.1714 39.9638 31.1714 41H31.9714C31.9714 39.5219 30.7638 38.3143 29.2857 38.3143V39.1143ZM27.4724 40.5309C27.686 39.7241 28.421 39.1143 29.2857 39.1143V38.3143C28.0361 38.3143 26.9998 39.1902 26.699 40.3262L27.4724 40.5309ZM26.6857 40.8286H27.0857V40.0286H26.6857V40.8286ZM20.774 37.5245C22.0464 39.5845 24.2604 40.8286 26.6857 40.8286V40.0286C24.5396 40.0286 22.5822 38.9298 21.4546 37.1041L20.774 37.5245ZM19.1198 34.9293L20.777 37.5293L21.4516 37.0993L19.7945 34.4993L19.1198 34.9293ZM19.8571 34.3143H19.4571V35.1143H19.8571V34.3143ZM20.6 33.5714C20.6 33.9791 20.2648 34.3143 19.8571 34.3143V35.1143C20.7066 35.1143 21.4 34.4209 21.4 33.5714H20.6ZM20.6 25.5714V33.5714H21.4V25.5714H20.6ZM19.8571 24.8286C20.2648 24.8286 20.6 25.1638 20.6 25.5714H21.4C21.4 24.7219 20.7066 24.0286 19.8571 24.0286V24.8286ZM18.7143 24.8286H19.8571V24.0286H18.7143V24.8286ZM29 13.7429C23.0934 13.7429 18.3143 18.5219 18.3143 24.4286H19.1143C19.1143 18.9638 23.5352 14.5429 29 14.5429V13.7429ZM39.6857 24.4286C39.6857 18.5219 34.9066 13.7429 29 13.7429V14.5429C34.4648 14.5429 38.8857 18.9638 38.8857 24.4286H39.6857ZM38.1429 24.8286H39.2857V24.0286H38.1429V24.8286ZM37.4 25.5714C37.4 25.1638 37.7352 24.8286 38.1429 24.8286V24.0286C37.2934 24.0286 36.6 24.7219 36.6 25.5714H37.4ZM37.4 33.5714V25.5714H36.6V33.5714H37.4ZM38.1429 34.3143C37.7352 34.3143 37.4 33.9791 37.4 33.5714H36.6C36.6 34.4209 37.2934 35.1143 38.1429 35.1143V34.3143ZM40.1429 34.3143H38.1429V35.1143H40.1429V34.3143ZM44.6 29.8571C44.6 32.3219 42.6077 34.3143 40.1429 34.3143V35.1143C43.0495 35.1143 45.4 32.7638 45.4 29.8571H44.6ZM44.6 29.2857V29.8571H45.4V29.2857H44.6ZM40.4061 24.8565C42.7391 24.9876 44.6 26.9285 44.6 29.2857H45.4C45.4 26.5001 43.2037 24.2124 40.451 24.0578L40.4061 24.8565ZM30.8286 41C30.8286 40.1505 30.1352 39.4571 29.2857 39.4571V40.2571C29.6934 40.2571 30.0286 40.5923 30.0286 41H30.8286ZM29.2857 42.5429C30.1352 42.5429 30.8286 41.8495 30.8286 41H30.0286C30.0286 41.4077 29.6934 41.7429 29.2857 41.7429V42.5429ZM27.7429 41C27.7429 41.8495 28.4362 42.5429 29.2857 42.5429V41.7429C28.8781 41.7429 28.5429 41.4077 28.5429 41H27.7429ZM29.2857 39.4571C28.4362 39.4571 27.7429 40.1505 27.7429 41H28.5429C28.5429 40.5923 28.8781 40.2571 29.2857 40.2571V39.4571ZM20.2571 33.5714V25.5714H19.4571V33.5714H20.2571ZM17.8571 33.9714H19.8571V33.1714H17.8571V33.9714ZM13.7429 29.8571C13.7429 32.1352 15.5791 33.9714 17.8571 33.9714V33.1714C16.0209 33.1714 14.5429 31.6934 14.5429 29.8571H13.7429ZM13.7429 29.2857V29.8571H14.5429V29.2857H13.7429ZM17.8571 25.1714C15.5791 25.1714 13.7429 27.0077 13.7429 29.2857H14.5429C14.5429 27.4495 16.0209 25.9714 17.8571 25.9714V25.1714ZM19.8571 25.1714H17.8571V25.9714H19.8571V25.1714ZM40.1429 33.9714C42.4209 33.9714 44.2571 32.1352 44.2571 29.8571H43.4571C43.4571 31.6934 41.9791 33.1714 40.1429 33.1714V33.9714ZM38.1429 33.9714H40.1429V33.1714H38.1429V33.9714ZM37.7429 25.5714V33.5714H38.5429V25.5714H37.7429ZM40.1429 25.1714H38.1429V25.9714H40.1429V25.1714ZM44.2571 29.2857C44.2571 27.0077 42.4209 25.1714 40.1429 25.1714V25.9714C41.9791 25.9714 43.4571 27.4495 43.4571 29.2857H44.2571ZM44.2571 29.8571V29.2857H43.4571V29.8571H44.2571ZM33.2924 17.5042C33.3677 17.5545 33.4788 17.6295 33.5639 17.672L33.9217 16.9565C33.8925 16.9419 33.8322 16.9026 33.7361 16.8386L33.2924 17.5042ZM33.2742 17.4914L33.2742 17.4914L33.7542 16.8514L33.7542 16.8514L33.2742 17.4914ZM33.1068 17.3863C33.136 17.4009 33.1963 17.4402 33.2923 17.5042L33.7361 16.8386C33.6607 16.7883 33.5496 16.7133 33.4645 16.6708L33.1068 17.3863ZM32.872 17.4074C32.8865 17.3784 32.914 17.3552 32.9541 17.3452C32.9958 17.3347 33.0358 17.3427 33.0638 17.3614L33.5075 16.6957C33.06 16.3974 32.4121 16.5383 32.1564 17.0497L32.872 17.4074ZM32.92 17.657C32.8648 17.6239 32.8488 17.5904 32.8427 17.5649C32.8354 17.5341 32.8358 17.4798 32.872 17.4074L32.1564 17.0497C32.0498 17.263 32.0073 17.5088 32.0643 17.7493C32.1225 17.9953 32.2779 18.2047 32.5084 18.343L32.92 17.657ZM33.1647 17.81C33.0893 17.7598 32.9782 17.6848 32.8931 17.6422L32.5353 18.3577C32.5645 18.3723 32.6248 18.4116 32.7209 18.4757L33.1647 17.81ZM33.1694 17.8132L33.1694 17.8132L32.7162 18.4725L32.7162 18.4725L33.1694 17.8132ZM33.3264 17.9062C33.3016 17.8979 33.2625 17.8752 33.1647 17.81L32.7209 18.4757C32.7945 18.5247 32.9269 18.6163 33.0734 18.6652L33.3264 17.9062ZM33.4857 17.9714C33.4859 17.9714 33.4824 17.9714 33.4755 17.9704C33.4689 17.9694 33.461 17.9677 33.4527 17.9654C33.4343 17.9601 33.4239 17.9542 33.4218 17.9529L32.9781 18.6185C33.1366 18.7242 33.3299 18.7714 33.4857 18.7714V17.9714ZM33.6241 17.8872C33.5985 17.932 33.5763 17.9483 33.5638 17.9553C33.5506 17.9628 33.5276 17.9714 33.4857 17.9714V18.7714C33.8221 18.7714 34.1297 18.6148 34.3187 18.2842L33.6241 17.8872ZM33.537 17.6573C33.6462 17.7228 33.655 17.8314 33.6217 17.8914L34.321 18.28C34.5734 17.8257 34.4108 17.2486 33.9486 16.9713L33.537 17.6573ZM29 15.4572C26.4545 15.4572 24.0581 16.5655 22.4109 18.4822L23.0177 19.0036C24.5134 17.2631 26.6885 16.2572 29 16.2572V15.4572ZM30.8927 15.668C30.2573 15.5167 29.6255 15.4572 29 15.4572V16.2572C29.5745 16.2572 30.1428 16.3119 30.7074 16.4463L30.8927 15.668ZM31.6117 16.8578C31.6962 16.5762 31.6188 16.3046 31.4879 16.1053C31.3577 15.9072 31.1539 15.7457 30.915 15.674L30.6851 16.4403C30.7318 16.4543 30.7852 16.4928 30.8193 16.5447C30.8527 16.5954 30.8467 16.6238 30.8455 16.6279L31.6117 16.8578ZM30.4713 17.565C31.0031 17.6617 31.4726 17.3215 31.6117 16.8578L30.8455 16.6279C30.8132 16.7356 30.7113 16.7955 30.6144 16.7779L30.4713 17.565ZM29 17.4C29.4844 17.4 29.9696 17.4538 30.4561 17.5619L30.6297 16.781C30.0876 16.6605 29.5442 16.6 29 16.6V17.4ZM23.8728 19.7487C25.1699 18.2625 27.0322 17.4 29 17.4V16.6C26.7964 16.6 24.7159 17.566 23.2701 19.2227L23.8728 19.7487ZM23.1429 20.0857C23.4205 20.0857 23.6845 19.9847 23.8838 19.7356L23.2591 19.2358C23.238 19.2622 23.2231 19.2706 23.2145 19.2745C23.2044 19.2791 23.1838 19.2857 23.1429 19.2857V20.0857ZM22.5315 19.8629C22.6808 19.9749 22.8788 20.0857 23.1429 20.0857V19.2857C23.1276 19.2857 23.1149 19.2832 23.0988 19.2766C23.0798 19.2688 23.0526 19.2537 23.0115 19.2229L22.5315 19.8629ZM22.4133 18.4795C22.0646 18.878 22.1169 19.5017 22.5081 19.8439L23.0349 19.2418C22.9689 19.1841 22.964 19.0649 23.0153 19.0063L22.4133 18.4795Z" fill="white"/>
</svg>
