<svg width="58" height="58" viewBox="0 0 58 58" fill="none" xmlns="http://www.w3.org/2000/svg">
<rect width="58" height="58" rx="29" fill="#BD9B60"/>
<path fill-rule="evenodd" clip-rule="evenodd" d="M46 29.7288C46 29.7755 45.9928 29.8203 45.9821 29.8636C45.9928 29.9073 46.0004 29.9525 46 30.0008C46 31.5194 44.4244 32.3046 43.0345 32.997C42.0477 33.4885 41.0278 33.9972 40.7558 34.6383C40.4798 35.2913 40.8693 36.3564 41.2463 37.3872L41.2469 37.3888C41.7727 38.8254 42.3162 40.3114 41.3127 41.3134C40.3308 42.2964 38.8936 41.9629 37.5044 41.6406L37.5024 41.6401C36.5296 41.4141 35.5245 41.1809 34.8514 41.465C34.1981 41.7419 33.6541 42.6004 33.1277 43.4315L33.1273 43.4321C32.3646 44.6357 31.5001 46 30.0004 46C28.4979 46 27.6505 44.606 26.9027 43.3758L26.9023 43.3752C26.3835 42.5214 25.8467 41.6386 25.1934 41.3624C24.526 41.08 23.5088 41.3352 22.5251 41.5819L22.5234 41.5824C21.1222 41.9352 19.673 42.2995 18.687 41.3131C17.6919 40.3176 18.1744 38.8252 18.6411 37.3813L18.6414 37.3805C18.9749 36.3496 19.3194 35.2837 19.0406 34.6239C18.7687 33.9807 17.7942 33.4767 16.8522 32.9896L16.8511 32.989C15.5148 32.2985 14.0004 31.5156 14.0004 30.0004C14.0004 29.9537 14.0076 29.9088 14.0182 29.8655C14.0076 29.8219 14 29.7767 14 29.7296C14 28.2143 15.5145 27.4315 16.8504 26.7409C17.7936 26.2532 18.7682 25.7491 19.0402 25.1057C19.319 24.4459 18.9745 23.38 18.641 22.3495C18.1738 20.9049 17.6914 19.4117 18.687 18.4165C19.6709 17.4315 21.1173 17.7944 22.5171 18.1457L22.523 18.1472L22.5271 18.1482C23.5096 18.3952 24.5254 18.6505 25.1926 18.3679C25.8463 18.0914 26.3831 17.2086 26.9019 16.3543C27.6495 15.1236 28.4973 13.7292 30 13.7292C31.499 13.7292 32.363 15.0921 33.1257 16.2952L33.1273 16.2977C33.6534 17.1288 34.1973 17.9873 34.8518 18.2642C35.5222 18.5476 36.5292 18.3147 37.5024 18.0891C38.893 17.7658 40.3304 17.4331 41.3134 18.4161C42.3158 19.4178 41.7727 20.9034 41.2469 22.3404L41.2447 22.3466C40.8686 23.376 40.4802 24.4388 40.7562 25.0916C41.0278 25.7324 42.0477 26.241 43.0345 26.7326L43.0352 26.7329C44.4253 27.4257 46 28.2104 46 29.7288ZM39.7067 34.1932C40.1431 33.1634 41.3548 32.5594 42.5266 31.9756C43.727 31.3777 44.8608 30.8129 44.8608 29.9989C44.8608 29.9522 44.868 29.9073 44.8787 29.864C44.868 29.8203 44.8604 29.7751 44.8604 29.728C44.8604 28.9152 43.7266 28.3499 42.5263 27.7521C41.3544 27.1682 40.1423 26.5643 39.7067 25.5349C39.2555 24.4673 39.7236 23.1871 40.1763 21.949L40.1765 21.9484L40.1775 21.9456C40.598 20.7949 40.9951 19.7084 40.5074 19.2214C39.9717 18.685 38.8981 18.934 37.7619 19.1974L37.7599 19.1979L37.7598 19.1979C36.6096 19.4649 35.4204 19.741 34.4078 19.313C33.4264 18.8974 32.7859 17.887 32.1661 16.9094L32.1644 16.9066C31.5004 15.8579 30.8729 14.8676 30 14.8676C29.1381 14.8676 28.525 15.8765 27.8759 16.945L27.8746 16.9471C27.2615 17.9549 26.6278 18.9968 25.6363 19.4159C24.6183 19.8472 23.4162 19.5453 22.2526 19.253L22.2446 19.2511L22.2417 19.2503C21.0987 18.963 20.0202 18.692 19.4926 19.2207C18.9897 19.7228 19.3462 20.8262 19.7239 21.9948L19.7247 21.9974C20.1224 23.2265 20.533 24.4971 20.0894 25.5478C19.6575 26.571 18.4965 27.1712 17.3738 27.7515L17.3734 27.7517C16.2244 28.3454 15.1392 28.9064 15.1392 29.728C15.1392 29.7748 15.1319 29.8196 15.1213 29.8629C15.1319 29.9069 15.1395 29.9522 15.1395 29.9993C15.1395 30.8209 16.2252 31.3819 17.3742 31.9756L17.3762 31.9767C18.498 32.5571 19.6577 33.1572 20.0897 34.1791C20.5334 35.2302 20.1228 36.5011 19.7251 37.7299L19.7249 37.7305C19.347 38.8998 18.9901 40.0042 19.4926 40.5063C20.0203 41.0343 21.0956 40.7645 22.2354 40.4786L22.245 40.4762C23.4119 40.1826 24.6172 39.8795 25.637 40.3118C26.6292 40.7307 27.2632 41.7738 27.8759 42.7823L27.8769 42.7839C28.526 43.8514 29.1389 44.8593 30.0004 44.8593C30.8733 44.8593 31.5008 43.8691 32.1651 42.8207L32.1651 42.8207L32.1659 42.8195C32.7856 41.8414 33.4262 40.8301 34.4078 40.4147C35.4198 39.9869 36.6082 40.2624 37.7577 40.5289L37.7599 40.5294L37.7615 40.5298C38.8978 40.7933 39.972 41.0424 40.507 40.5063C40.9957 40.0187 40.5981 38.9311 40.1774 37.7803L40.1769 37.7789L40.1769 37.7789C39.7241 36.541 39.2558 35.2605 39.7067 34.1932ZM28.6899 32.8755L35.1017 25.6933C35.3118 25.4589 35.6711 25.4384 35.9066 25.6477C36.1414 25.8574 36.1619 26.2175 35.9522 26.4522L29.1385 34.0841C29.034 34.2011 28.8863 34.2695 28.7294 34.2741C28.7241 34.2744 28.7188 34.2744 28.7135 34.2744H28.7134C28.5623 34.2744 28.4171 34.2148 28.3104 34.1077L24.6304 30.4277C24.4078 30.2051 24.4078 29.8446 24.6304 29.622C24.853 29.3995 25.2135 29.3995 25.4361 29.622L28.6899 32.8755Z" fill="white"/>
<path d="M45.9821 29.8636L45.7394 29.804L45.7248 29.8634L45.7392 29.9228L45.9821 29.8636ZM46 30.0008L45.75 29.9988V30.0008H46ZM43.0345 32.997L43.146 33.2208L43.146 33.2208L43.0345 32.997ZM40.7558 34.6383L40.5256 34.5407L40.5255 34.541L40.7558 34.6383ZM41.2463 37.3872L41.0116 37.4731L41.0117 37.4734L41.2463 37.3872ZM41.2469 37.3888L41.4817 37.3029L41.4816 37.3027L41.2469 37.3888ZM41.3127 41.3134L41.136 41.1365L41.1358 41.1368L41.3127 41.3134ZM37.5044 41.6406L37.4479 41.8841L37.4479 41.8841L37.5044 41.6406ZM37.5024 41.6401L37.4458 41.8836L37.4459 41.8836L37.5024 41.6401ZM34.8514 41.465L34.7542 41.2347L34.7539 41.2348L34.8514 41.465ZM33.1277 43.4315L32.9165 43.2977L32.916 43.2984L33.1277 43.4315ZM33.1273 43.4321L33.3385 43.5659L33.339 43.5651L33.1273 43.4321ZM26.9027 43.3758L27.1163 43.246L27.1162 43.2458L26.9027 43.3758ZM26.9023 43.3752L26.6887 43.5051L26.6888 43.5053L26.9023 43.3752ZM25.1934 41.3624L25.096 41.5927L25.0961 41.5927L25.1934 41.3624ZM22.5251 41.5819L22.4643 41.3395L22.464 41.3395L22.5251 41.5819ZM22.5234 41.5824L22.5845 41.8248L22.5846 41.8248L22.5234 41.5824ZM18.687 41.3131L18.8638 41.1363L18.8638 41.1363L18.687 41.3131ZM18.6411 37.3813L18.879 37.4582L18.879 37.4581L18.6411 37.3813ZM18.6414 37.3805L18.4035 37.3035L18.4035 37.3036L18.6414 37.3805ZM19.0406 34.6239L19.2709 34.5266L19.2709 34.5266L19.0406 34.6239ZM16.8522 32.9896L16.7372 33.2116L16.7373 33.2116L16.8522 32.9896ZM16.8511 32.989L16.9661 32.767L16.9659 32.7669L16.8511 32.989ZM14.0182 29.8655L14.261 29.9252L14.2756 29.8658L14.2611 29.8064L14.0182 29.8655ZM16.8504 26.7409L16.9652 26.963L16.9652 26.963L16.8504 26.7409ZM19.0402 25.1057L19.2705 25.203L19.2705 25.203L19.0402 25.1057ZM18.641 22.3495L18.4031 22.4264L18.4031 22.4265L18.641 22.3495ZM18.687 18.4165L18.8637 18.5933L18.8638 18.5932L18.687 18.4165ZM22.5171 18.1457L22.5779 17.9032L22.5779 17.9032L22.5171 18.1457ZM22.523 18.1472L22.584 17.9048L22.5839 17.9047L22.523 18.1472ZM22.5271 18.1482L22.4661 18.3907L22.4661 18.3907L22.5271 18.1482ZM25.1926 18.3679L25.0952 18.1377L25.0951 18.1377L25.1926 18.3679ZM26.9019 16.3543L26.6883 16.2245L26.6883 16.2245L26.9019 16.3543ZM33.1257 16.2952L32.9145 16.429L32.9145 16.4291L33.1257 16.2952ZM33.1273 16.2977L33.3385 16.164L33.3384 16.1638L33.1273 16.2977ZM34.8518 18.2642L34.7544 18.4944L34.7545 18.4945L34.8518 18.2642ZM37.5024 18.0891L37.5589 18.3326L37.559 18.3326L37.5024 18.0891ZM41.3134 18.4161L41.1366 18.5929L41.1367 18.593L41.3134 18.4161ZM41.2469 22.3404L41.0122 22.2545L41.0121 22.2546L41.2469 22.3404ZM41.2447 22.3466L41.4795 22.4324L41.4795 22.4324L41.2447 22.3466ZM40.7562 25.0916L40.5259 25.189L40.526 25.1892L40.7562 25.0916ZM43.0345 26.7326L43.1463 26.5089L43.146 26.5088L43.0345 26.7326ZM43.0352 26.7329L42.9234 26.9565L42.9237 26.9567L43.0352 26.7329ZM42.5266 31.9756L42.4152 31.7518L42.4152 31.7518L42.5266 31.9756ZM39.7067 34.1932L39.4765 34.0956L39.4764 34.0959L39.7067 34.1932ZM44.8787 29.864L45.1215 29.9237L45.136 29.8643L45.1216 29.8049L44.8787 29.864ZM42.5263 27.7521L42.4148 27.9758L42.4148 27.9758L42.5263 27.7521ZM39.7067 25.5349L39.4764 25.6322L39.4764 25.6323L39.7067 25.5349ZM40.1763 21.949L40.4111 22.0349L40.4112 22.0345L40.1763 21.949ZM40.1765 21.9484L39.9417 21.8626L39.9416 21.8629L40.1765 21.9484ZM40.1775 21.9456L39.9427 21.8598L39.9427 21.8598L40.1775 21.9456ZM40.5074 19.2214L40.3305 19.3981L40.3307 19.3983L40.5074 19.2214ZM37.7619 19.1974L37.8183 19.441L37.8184 19.4409L37.7619 19.1974ZM37.7599 19.1979L37.7035 18.9543L37.7031 18.9544L37.7599 19.1979ZM37.7598 19.1979L37.8163 19.4414L37.8166 19.4414L37.7598 19.1979ZM34.4078 19.313L34.3103 19.5432L34.3104 19.5432L34.4078 19.313ZM32.1661 16.9094L32.3773 16.7755L32.3772 16.7754L32.1661 16.9094ZM32.1644 16.9066L31.9531 17.0404L31.9533 17.0406L32.1644 16.9066ZM27.8759 16.945L28.0895 17.0749L28.0895 17.0748L27.8759 16.945ZM27.8746 16.9471L28.0882 17.077L28.0882 17.077L27.8746 16.9471ZM25.6363 19.4159L25.539 19.1856L25.5388 19.1857L25.6363 19.4159ZM22.2526 19.253L22.3135 19.0106L22.3134 19.0106L22.2526 19.253ZM22.2446 19.2511L22.1837 19.4935L22.1837 19.4935L22.2446 19.2511ZM22.2417 19.2503L22.1808 19.4928L22.1808 19.4928L22.2417 19.2503ZM19.4926 19.2207L19.6693 19.3976L19.6696 19.3972L19.4926 19.2207ZM19.7239 21.9948L19.486 22.0717L19.486 22.0717L19.7239 21.9948ZM19.7247 21.9974L19.4868 22.0743L19.4868 22.0743L19.7247 21.9974ZM20.0894 25.5478L19.859 25.4506L19.859 25.4506L20.0894 25.5478ZM17.3738 27.7515L17.259 27.5294L17.2589 27.5295L17.3738 27.7515ZM17.3734 27.7517L17.4882 27.9738L17.4883 27.9737L17.3734 27.7517ZM15.1213 29.8629L14.8785 29.8033L14.864 29.8624L14.8783 29.9215L15.1213 29.8629ZM17.3742 31.9756L17.4891 31.7536L17.489 31.7535L17.3742 31.9756ZM17.3762 31.9767L17.2613 32.1987L17.2613 32.1987L17.3762 31.9767ZM20.0897 34.1791L20.3201 34.0819L20.32 34.0818L20.0897 34.1791ZM19.7251 37.7299L19.4872 37.653L19.4872 37.653L19.7251 37.7299ZM19.7249 37.7305L19.487 37.6535L19.487 37.6536L19.7249 37.7305ZM19.4926 40.5063L19.6695 40.3295L19.6693 40.3294L19.4926 40.5063ZM22.2354 40.4786L22.1746 40.2362L22.1746 40.2362L22.2354 40.4786ZM22.245 40.4762L22.3058 40.7187L22.306 40.7187L22.245 40.4762ZM25.637 40.3118L25.5395 40.5419L25.5398 40.5421L25.637 40.3118ZM27.8759 42.7823L27.6622 42.9121L27.6624 42.9124L27.8759 42.7823ZM27.8769 42.7839L28.0905 42.654L28.0903 42.6538L27.8769 42.7839ZM32.1651 42.8207L32.3763 42.9545L32.3771 42.9532L32.1651 42.8207ZM32.1651 42.8207L31.954 42.6868L31.9531 42.6882L32.1651 42.8207ZM32.1659 42.8195L32.377 42.9534L32.3771 42.9533L32.1659 42.8195ZM34.4078 40.4147L34.3104 40.1844L34.3103 40.1845L34.4078 40.4147ZM37.7577 40.5289L37.7013 40.7725L37.7016 40.7725L37.7577 40.5289ZM37.7599 40.5294L37.8165 40.2859L37.8161 40.2858L37.7599 40.5294ZM37.7615 40.5298L37.7049 40.7733L37.705 40.7733L37.7615 40.5298ZM40.507 40.5063L40.3304 40.3293L40.33 40.3297L40.507 40.5063ZM40.1774 37.7803L39.9424 37.8656L39.9426 37.8661L40.1774 37.7803ZM40.1769 37.7789L40.412 37.6935L40.409 37.6861L40.1769 37.7789ZM40.1769 37.7789L39.942 37.8648L39.9448 37.8717L40.1769 37.7789ZM35.1017 25.6933L34.9156 25.5264L34.9152 25.5268L35.1017 25.6933ZM28.6899 32.8755L28.5131 33.0522L28.7002 33.2393L28.8764 33.0419L28.6899 32.8755ZM35.9066 25.6477L36.0732 25.4612L36.0727 25.4608L35.9066 25.6477ZM35.9522 26.4522L35.7658 26.2857L35.7657 26.2857L35.9522 26.4522ZM29.1385 34.0841L29.325 34.2506L29.325 34.2506L29.1385 34.0841ZM28.7294 34.2741L28.7221 34.0239L28.7115 34.0247L28.7294 34.2741ZM28.3104 34.1077L28.4875 33.9312L28.4872 33.9309L28.3104 34.1077ZM25.4361 29.622L25.2593 29.7988L25.2593 29.7988L25.4361 29.622ZM46.2249 29.9233C46.2388 29.8669 46.25 29.8013 46.25 29.7288H45.75C45.75 29.7498 45.7468 29.7738 45.7394 29.804L46.2249 29.9233ZM46.25 30.0027C46.2506 29.9268 46.2385 29.8599 46.225 29.8045L45.7392 29.9228C45.747 29.9548 45.7502 29.9782 45.75 29.9988L46.25 30.0027ZM43.146 33.2208C43.8346 32.8777 44.6042 32.4957 45.1984 32.0008C45.799 31.5008 46.25 30.8609 46.25 30.0008H45.75C45.75 30.6593 45.4132 31.1713 44.8785 31.6166C44.3375 32.0671 43.6243 32.4239 42.923 32.7733L43.146 33.2208ZM40.9859 34.736C41.0911 34.4881 41.3586 34.235 41.7636 33.971C42.1614 33.7117 42.6492 33.4682 43.146 33.2208L42.9231 32.7732C42.4329 33.0174 41.9174 33.274 41.4906 33.5521C41.0709 33.8256 40.6925 34.1474 40.5256 34.5407L40.9859 34.736ZM41.4811 37.3013C41.2912 36.7821 41.1056 36.2736 40.9998 35.8149C40.8921 35.3484 40.8804 34.9856 40.9861 34.7357L40.5255 34.541C40.3551 34.9441 40.4002 35.4403 40.5126 35.9273C40.6268 36.4221 40.8244 36.9615 41.0116 37.4731L41.4811 37.3013ZM41.4816 37.3027L41.481 37.301L41.0117 37.4734L41.0123 37.475L41.4816 37.3027ZM41.4893 41.4903C42.0625 40.918 42.1832 40.2094 42.1017 39.4861C42.0215 38.7741 41.7418 38.0137 41.4817 37.3029L41.0122 37.4747C41.2778 38.2006 41.5327 38.9014 41.6048 39.5421C41.6757 40.1714 41.5664 40.7068 41.136 41.1365L41.4893 41.4903ZM37.4479 41.8841C38.1358 42.0437 38.8715 42.2157 39.561 42.2165C40.2603 42.2173 40.9376 42.0426 41.4895 41.4901L41.1358 41.1368C40.7058 41.5672 40.1737 41.7172 39.5616 41.7165C38.9398 41.7157 38.2623 41.5598 37.5609 41.397L37.4479 41.8841ZM37.4459 41.8836L37.4479 41.8841L37.5609 41.397L37.5589 41.3966L37.4459 41.8836ZM34.9486 41.6953C35.2259 41.5783 35.5939 41.5602 36.0368 41.6097C36.4765 41.6588 36.9561 41.7698 37.4458 41.8836L37.559 41.3966C37.0759 41.2844 36.5666 41.1658 36.0923 41.1128C35.6212 41.0602 35.15 41.0676 34.7542 41.2347L34.9486 41.6953ZM33.3389 43.5653C33.6039 43.1469 33.8639 42.7371 34.1369 42.3969C34.4122 42.054 34.6799 41.8092 34.949 41.6952L34.7539 41.2348C34.3696 41.3977 34.0387 41.7206 33.747 42.0839C33.4531 42.45 33.1779 42.8849 32.9165 43.2977L33.3389 43.5653ZM33.339 43.5651L33.3393 43.5645L32.916 43.2984L32.9156 43.299L33.339 43.5651ZM30.0004 46.25C30.8362 46.25 31.4868 45.8666 32.0157 45.3455C32.5387 44.8302 32.9605 44.1624 33.3385 43.5659L32.9161 43.2983C32.5315 43.9053 32.1396 44.5215 31.6648 44.9893C31.1959 45.4513 30.6643 45.75 30.0004 45.75V46.25ZM26.6891 43.5057C27.0596 44.1153 27.4731 44.7977 27.9902 45.3244C28.5132 45.8571 29.161 46.25 30.0004 46.25V45.75C29.3373 45.75 28.8102 45.4459 28.3469 44.9741C27.8777 44.4962 27.4936 43.8665 27.1163 43.246L26.6891 43.5057ZM26.6888 43.5053L26.6892 43.5058L27.1162 43.2458L27.1159 43.2452L26.6888 43.5053ZM25.0961 41.5927C25.3627 41.7054 25.6279 41.9536 25.9007 42.3054C26.1711 42.654 26.4275 43.0752 26.6887 43.5051L27.116 43.2454C26.8583 42.8214 26.5869 42.3743 26.2958 41.999C26.0073 41.6269 25.6774 41.2956 25.2907 41.1322L25.0961 41.5927ZM22.5859 41.8244C23.0812 41.7002 23.5665 41.5788 24.0098 41.5217C24.457 41.4641 24.8242 41.4777 25.096 41.5927L25.2908 41.1322C24.8952 40.9648 24.4201 40.9647 23.9459 41.0258C23.4678 41.0874 22.9526 41.2169 22.4643 41.3395L22.5859 41.8244ZM22.5846 41.8248L22.5862 41.8244L22.464 41.3395L22.4623 41.34L22.5846 41.8248ZM18.5101 41.4898C19.0657 42.0456 19.7492 42.2126 20.454 42.1999C21.1489 42.1874 21.8907 41.9995 22.5845 41.8248L22.4624 41.3399C21.7549 41.5181 21.0715 41.6887 20.445 41.7C19.8284 41.7111 19.2943 41.567 18.8638 41.1363L18.5101 41.4898ZM18.4032 37.3044C18.1722 38.0191 17.924 38.7825 17.8667 39.4953C17.8085 40.2184 17.9438 40.9232 18.5101 41.4898L18.8638 41.1363C18.4351 40.7075 18.3141 40.1684 18.3651 39.5354C18.4168 38.8921 18.6433 38.1874 18.879 37.4582L18.4032 37.3044ZM18.4035 37.3036L18.4032 37.3044L18.879 37.4581L18.8793 37.4573L18.4035 37.3036ZM18.8103 34.7212C18.9194 34.9795 18.916 35.3484 18.8252 35.8153C18.7357 36.2754 18.5714 36.7844 18.4035 37.3035L18.8792 37.4574C19.0448 36.9456 19.2196 36.4063 19.316 35.9108C19.4111 35.422 19.4406 34.9281 19.2709 34.5266L18.8103 34.7212ZM16.7373 33.2116C17.2117 33.4569 17.6768 33.6979 18.0577 33.9553C18.4442 34.2167 18.7039 34.4694 18.8103 34.7212L19.2709 34.5266C19.1054 34.1352 18.7419 33.8144 18.3377 33.5411C17.9278 33.264 17.4347 33.0094 16.967 32.7675L16.7373 33.2116ZM16.7362 33.211L16.7372 33.2116L16.9671 32.7676L16.9661 32.767L16.7362 33.211ZM13.7504 30.0004C13.7504 30.855 14.1821 31.4928 14.7612 31.9931C15.3334 32.4875 16.0744 32.8691 16.7364 33.2111L16.9659 32.7669C16.2916 32.4185 15.6072 32.0633 15.0881 31.6148C14.5758 31.1722 14.2504 30.661 14.2504 30.0004H13.7504ZM13.7754 29.8059C13.7616 29.8623 13.7504 29.9279 13.7504 30.0004H14.2504C14.2504 29.9794 14.2536 29.9554 14.261 29.9252L13.7754 29.8059ZM13.75 29.7296C13.75 29.8033 13.7619 29.8696 13.7753 29.9247L14.2611 29.8064C14.2533 29.7742 14.25 29.75 14.25 29.7296H13.75ZM16.7356 26.5188C16.0738 26.8609 15.3329 27.2424 14.7608 27.7368C14.1818 28.2371 13.75 28.875 13.75 29.7296H14.25C14.25 29.0689 14.5755 28.5577 15.0877 28.1152C15.6067 27.6667 16.291 27.3115 16.9652 26.963L16.7356 26.5188ZM18.8099 25.0083C18.7035 25.2603 18.4437 25.5131 18.057 25.7746C17.6759 26.0322 17.2105 26.2733 16.7356 26.5188L16.9652 26.963C17.4335 26.7208 17.9269 26.466 18.337 26.1888C18.7414 25.9154 19.105 25.5945 19.2705 25.203L18.8099 25.0083ZM18.4031 22.4265C18.5711 22.9453 18.7353 23.4543 18.8248 23.9143C18.9157 24.3811 18.9191 24.7501 18.8099 25.0083L19.2705 25.203C19.4402 24.8014 19.4107 24.3076 19.3156 23.8188C19.2192 23.3234 19.0444 22.7841 18.8788 22.2725L18.4031 22.4265ZM18.5102 18.2397C17.9435 18.8062 17.8081 19.5112 17.8662 20.2345C17.9236 20.9476 18.1719 21.7114 18.4031 22.4264L18.8789 22.2725C18.6429 21.543 18.4164 20.8379 18.3646 20.1944C18.3137 19.5612 18.4348 19.0221 18.8637 18.5933L18.5102 18.2397ZM22.5779 17.9032C21.8849 17.7293 21.1441 17.5421 20.4504 17.53C19.7468 17.5177 19.0646 17.6847 18.5101 18.2398L18.8638 18.5932C19.2933 18.1632 19.8262 18.0192 20.4417 18.0299C21.0671 18.0409 21.7494 18.2108 22.4562 18.3882L22.5779 17.9032ZM22.5839 17.9047L22.5779 17.9032L22.4562 18.3882L22.4622 18.3897L22.5839 17.9047ZM22.588 17.9058L22.584 17.9048L22.4621 18.3897L22.4661 18.3907L22.588 17.9058ZM25.0951 18.1377C24.8235 18.2527 24.4567 18.2663 24.0101 18.2087C23.5673 18.1516 23.0828 18.0301 22.588 17.9058L22.4661 18.3907C22.954 18.5133 23.4685 18.643 23.9461 18.7046C24.4198 18.7657 24.8945 18.7657 25.2901 18.5981L25.0951 18.1377ZM26.6883 16.2245C26.4271 16.6546 26.1707 17.0759 25.9003 17.4246C25.6274 17.7764 25.3621 18.0248 25.0952 18.1377L25.29 18.5981C25.6769 18.4345 26.0068 18.1032 26.2954 17.731C26.5865 17.3556 26.8579 16.9084 27.1156 16.4841L26.6883 16.2245ZM30 13.4792C29.1605 13.4792 28.5125 13.8722 27.9894 14.4051C27.4722 14.9319 27.0587 15.6146 26.6883 16.2245L27.1156 16.4841C27.4927 15.8633 27.8769 15.2334 28.3462 14.7554C28.8095 14.2834 29.3368 13.9792 30 13.9792V13.4792ZM33.3368 16.1613C32.9588 15.565 32.5372 14.8977 32.0143 14.3829C31.4856 13.8622 30.8354 13.4792 30 13.4792V13.9792C30.6636 13.9792 31.1948 14.2776 31.6635 14.7391C32.1381 15.2065 32.5298 15.8222 32.9145 16.429L33.3368 16.1613ZM33.3384 16.1638L33.3368 16.1613L32.9145 16.4291L32.9162 16.4316L33.3384 16.1638ZM34.9492 18.034C34.6796 17.9199 34.4116 17.6751 34.1363 17.3323C33.8632 16.9921 33.6033 16.5823 33.3385 16.164L32.9161 16.4314C33.1773 16.8442 33.4525 17.2792 33.7465 17.6453C34.0383 18.0087 34.3696 18.3316 34.7544 18.4944L34.9492 18.034ZM37.4459 17.8456C36.956 17.9591 36.4758 18.07 36.0359 18.1191C35.5926 18.1685 35.2249 18.1505 34.9491 18.0339L34.7545 18.4945C35.1491 18.6613 35.6202 18.6685 36.0913 18.616C36.5657 18.5631 37.0756 18.4447 37.5589 18.3326L37.4459 17.8456ZM41.4902 18.2394C40.9377 17.6869 40.2601 17.512 39.5605 17.5128C38.8705 17.5135 38.1344 17.6855 37.4458 17.8456L37.559 18.3326C38.261 18.1694 38.9389 18.0134 39.561 18.0128C40.1734 18.0121 40.706 18.1623 41.1366 18.5929L41.4902 18.2394ZM41.4817 22.4263C41.7418 21.7153 42.0214 20.9548 42.1017 20.243C42.1831 19.5199 42.0627 18.8115 41.4901 18.2393L41.1367 18.593C41.5665 19.0225 41.6757 19.5577 41.6048 20.187C41.5326 20.8276 41.2778 21.5285 41.0122 22.2545L41.4817 22.4263ZM41.4795 22.4324L41.4818 22.4261L41.0121 22.2546L41.0098 22.2609L41.4795 22.4324ZM40.9864 24.9943C40.8808 24.7444 40.8923 24.3821 40.9995 23.9164C41.105 23.4585 41.29 22.9509 41.4795 22.4324L41.0098 22.2608C40.8232 22.7717 40.626 23.3102 40.5123 23.8042C40.4003 24.2905 40.3556 24.7861 40.5259 25.189L40.9864 24.9943ZM43.146 26.5088C42.6492 26.2614 42.1614 26.0179 41.7636 25.7586C41.3587 25.4947 41.0913 25.2417 40.9864 24.994L40.526 25.1892C40.6926 25.5824 41.071 25.904 41.4906 26.1775C41.9174 26.4556 42.4329 26.7122 42.9231 26.9563L43.146 26.5088ZM43.147 26.5093L43.1463 26.5089L42.9227 26.9562L42.9234 26.9565L43.147 26.5093ZM46.25 29.7288C46.25 28.8689 45.7992 28.2292 45.1989 27.7292C44.6048 27.2344 43.8355 26.8524 43.1467 26.5092L42.9237 26.9567C43.6251 27.3062 44.3381 27.663 44.8789 28.1134C45.4134 28.5585 45.75 29.0703 45.75 29.7288H46.25ZM42.4152 31.7518C41.833 32.0419 41.2195 32.347 40.6975 32.7123C40.1747 33.0782 39.7205 33.5198 39.4765 34.0956L39.9368 34.2907C40.1293 33.8367 40.4991 33.4615 40.9842 33.122C41.4702 32.7819 42.0485 32.4931 42.6381 32.1994L42.4152 31.7518ZM44.6108 29.9989C44.6108 30.2796 44.4157 30.5591 43.9961 30.8666C43.5834 31.1691 43.0214 31.4499 42.4152 31.7518L42.6381 32.1994C43.2322 31.9035 43.8373 31.6029 44.2916 31.2699C44.739 30.9421 45.1108 30.5322 45.1108 29.9989H44.6108ZM44.6359 29.8044C44.622 29.8608 44.6108 29.9264 44.6108 29.9989H45.1108C45.1108 29.9779 45.114 29.9538 45.1215 29.9237L44.6359 29.8044ZM44.6104 29.728C44.6104 29.8018 44.6223 29.868 44.6358 29.9232L45.1216 29.8049C45.1137 29.7727 45.1104 29.7485 45.1104 29.728H44.6104ZM42.4148 27.9758C43.021 28.2778 43.583 28.5587 43.9957 28.8611C44.4155 29.1687 44.6104 29.448 44.6104 29.728H45.1104C45.1104 29.1952 44.7385 28.7855 44.2912 28.4578C43.8369 28.1249 43.2319 27.8242 42.6377 27.5283L42.4148 27.9758ZM39.4764 25.6323C39.7201 26.208 40.1742 26.6495 40.6971 27.0154C41.2191 27.3807 41.8326 27.6858 42.4148 27.9758L42.6378 27.5283C42.0481 27.2345 41.4697 26.9458 40.9837 26.6057C40.4986 26.2663 40.1289 25.8912 39.9369 25.4374L39.4764 25.6323ZM39.9415 21.8632C39.7167 22.478 39.4787 23.127 39.357 23.7586C39.2349 24.3923 39.224 25.035 39.4764 25.6322L39.9369 25.4376C39.7381 24.9672 39.7357 24.436 39.848 23.8532C39.9607 23.2683 40.1832 22.6582 40.4111 22.0349L39.9415 21.8632ZM39.9416 21.8629L39.9413 21.8636L40.4112 22.0345L40.4115 22.0338L39.9416 21.8629ZM39.9427 21.8598L39.9417 21.8626L40.4113 22.0341L40.4123 22.0314L39.9427 21.8598ZM40.3307 19.3983C40.4784 19.5458 40.5265 19.821 40.4375 20.2878C40.3512 20.7399 40.1552 21.2783 39.9427 21.8598L40.4123 22.0314C40.6203 21.4623 40.8331 20.882 40.9286 20.3815C41.0213 19.8955 41.0241 19.384 40.684 19.0445L40.3307 19.3983ZM37.8184 19.4409C38.3927 19.3078 38.9227 19.1856 39.3745 19.159C39.8305 19.1322 40.1401 19.2074 40.3305 19.3981L40.6843 19.0448C40.339 18.699 39.844 18.6305 39.3451 18.6599C38.8422 18.6895 38.2673 18.8236 37.7055 18.9539L37.8184 19.4409ZM37.8163 19.4414L37.8183 19.441L37.7056 18.9538L37.7035 18.9543L37.8163 19.4414ZM37.8166 19.4414L37.8167 19.4413L37.7031 18.9544L37.7029 18.9545L37.8166 19.4414ZM34.3104 19.5432C34.8676 19.7788 35.4629 19.8161 36.0536 19.7652C36.6422 19.7145 37.2448 19.5741 37.8163 19.4414L37.7032 18.9544C37.1246 19.0887 36.5575 19.2199 36.0107 19.267C35.4662 19.3139 34.9606 19.2752 34.5051 19.0827L34.3104 19.5432ZM31.955 17.0433C32.263 17.5291 32.5871 18.0411 32.9603 18.4832C33.3347 18.9267 33.7703 19.3145 34.3103 19.5432L34.5052 19.0828C34.0639 18.8959 33.6885 18.5707 33.3424 18.1607C32.9951 17.7493 32.689 17.2673 32.3773 16.7755L31.955 17.0433ZM31.9533 17.0406L31.9551 17.0434L32.3772 16.7754L32.3754 16.7727L31.9533 17.0406ZM30 15.1176C30.3332 15.1176 30.6463 15.3048 30.9767 15.6632C31.3072 16.0219 31.6176 16.5104 31.9531 17.0404L32.3756 16.7729C32.0471 16.2541 31.7118 15.7231 31.3444 15.3244C30.9768 14.9255 30.5396 14.6176 30 14.6176V15.1176ZM28.0895 17.0748C28.4176 16.5348 28.7211 16.037 29.0452 15.6715C29.3698 15.3055 29.6757 15.1176 30 15.1176V14.6176C29.4624 14.6176 29.0309 14.9341 28.6711 15.3397C28.311 15.7458 27.9833 16.2866 27.6622 16.8152L28.0895 17.0748ZM28.0882 17.077L28.0895 17.0749L27.6623 16.8151L27.661 16.8172L28.0882 17.077ZM25.7336 19.6462C26.2806 19.415 26.7177 19.0167 27.0908 18.5606C27.4629 18.1058 27.7835 17.5779 28.0882 17.077L27.661 16.8172C27.3526 17.3242 27.0499 17.8211 26.7039 18.244C26.359 18.6655 25.9834 18.9978 25.539 19.1856L25.7336 19.6462ZM22.1917 19.4955C22.7698 19.6407 23.3793 19.7943 23.9739 19.8545C24.5706 19.915 25.1721 19.8841 25.7338 19.6461L25.5388 19.1857C25.0825 19.379 24.574 19.4128 24.0243 19.3571C23.4724 19.3011 22.8989 19.1576 22.3135 19.0106L22.1917 19.4955ZM22.1837 19.4935L22.1917 19.4955L22.3134 19.0106L22.3055 19.0086L22.1837 19.4935ZM22.1808 19.4928L22.1837 19.4935L22.3055 19.0086L22.3026 19.0079L22.1808 19.4928ZM19.6696 19.3972C19.8532 19.2133 20.1582 19.1427 20.6168 19.1787C21.0699 19.2143 21.603 19.3476 22.1808 19.4928L22.3027 19.0079C21.7374 18.8658 21.1597 18.7199 20.6559 18.6803C20.1576 18.6411 19.6596 18.6994 19.3156 19.0441L19.6696 19.3972ZM19.9618 21.918C19.771 21.3275 19.595 20.7807 19.5252 20.3204C19.4536 19.848 19.5088 19.5578 19.6693 19.3976L19.316 19.0438C18.9735 19.3857 18.9555 19.8983 19.0309 20.3953C19.108 20.9043 19.2992 21.4936 19.486 22.0717L19.9618 21.918ZM19.9626 21.9205L19.9618 21.9179L19.486 22.0717L19.4868 22.0743L19.9626 21.9205ZM20.3197 25.6451C20.5668 25.0598 20.5702 24.4268 20.4694 23.7998C20.3689 23.1748 20.1601 22.531 19.9626 21.9204L19.4868 22.0743C19.687 22.6929 19.8824 23.299 19.9757 23.8792C20.0687 24.4575 20.0556 24.9851 19.859 25.4506L20.3197 25.6451ZM17.4886 27.9736C18.0463 27.6853 18.6347 27.3817 19.1372 27.0183C19.6409 26.6539 20.079 26.2152 20.3197 25.645L19.859 25.4506C19.6678 25.9036 19.3095 26.2766 18.8441 26.6132C18.3775 26.9507 17.824 27.2374 17.259 27.5294L17.4886 27.9736ZM17.4883 27.9737L17.4886 27.9736L17.2589 27.5295L17.2586 27.5296L17.4883 27.9737ZM15.3892 29.728C15.3892 29.4382 15.5792 29.1573 15.9772 28.853C16.371 28.552 16.9076 28.2738 17.4882 27.9738L17.2587 27.5296C16.6902 27.8233 16.1097 28.1224 15.6736 28.4558C15.2418 28.7859 14.8892 29.1963 14.8892 29.728H15.3892ZM15.3641 29.9225C15.378 29.8661 15.3892 29.8005 15.3892 29.728H14.8892C14.8892 29.749 14.8859 29.7731 14.8785 29.8033L15.3641 29.9225ZM15.3895 29.9993C15.3895 29.9254 15.3776 29.8593 15.3643 29.8042L14.8783 29.9215C14.8863 29.9546 14.8895 29.9789 14.8895 29.9993H15.3895ZM17.489 31.7535C16.9083 31.4535 16.3717 31.1753 15.9778 30.8743C15.5796 30.57 15.3895 30.2891 15.3895 29.9993H14.8895C14.8895 30.531 15.2423 30.9415 15.6742 31.2715C16.1104 31.6049 16.691 31.904 17.2594 32.1977L17.489 31.7535ZM17.4911 31.7546L17.4891 31.7536L17.2593 32.1976L17.2613 32.1987L17.4911 31.7546ZM20.32 34.0818C20.0793 33.5123 19.6415 33.074 19.1382 32.7098C18.6362 32.3465 18.0484 32.043 17.4911 31.7546L17.2613 32.1987C17.8259 32.4908 18.3788 32.7775 18.8451 33.1149C19.3101 33.4513 19.6682 33.824 19.8595 34.2765L20.32 34.0818ZM19.9629 37.8069C20.1605 37.1965 20.3692 36.5527 20.4698 35.9275C20.5706 35.3005 20.5672 34.6673 20.3201 34.0819L19.8594 34.2763C20.056 34.7419 20.0691 35.2698 19.9761 35.8482C19.8828 36.4285 19.6874 37.0346 19.4872 37.653L19.9629 37.8069ZM19.9628 37.8074L19.963 37.8069L19.4872 37.653L19.487 37.6535L19.9628 37.8074ZM19.6693 40.3294C19.5091 40.1693 19.454 39.8789 19.5258 39.4061C19.5958 38.9454 19.7719 38.3982 19.9628 37.8073L19.487 37.6536C19.3001 38.2321 19.1088 38.8217 19.0315 39.3311C18.956 39.8283 18.9737 40.3411 19.3159 40.6831L19.6693 40.3294ZM22.1746 40.2362C21.5985 40.3807 21.067 40.5132 20.6151 40.5484C20.1578 40.584 19.8533 40.5135 19.6695 40.3295L19.3158 40.683C19.6596 41.0271 20.1566 41.0856 20.6539 41.0469C21.1565 41.0078 21.7326 40.8625 22.2963 40.7211L22.1746 40.2362ZM22.1842 40.2338L22.1746 40.2362L22.2963 40.7211L22.3058 40.7187L22.1842 40.2338ZM25.7346 40.0816C25.1719 39.8431 24.569 39.8122 23.9709 39.8731C23.3749 39.9337 22.7638 40.0879 22.184 40.2338L22.306 40.7187C22.8931 40.571 23.4681 40.4268 24.0214 40.3705C24.5726 40.3145 25.0823 40.3482 25.5395 40.5419L25.7346 40.0816ZM28.0895 42.6525C27.7851 42.1513 27.4644 41.6229 27.0923 41.1677C26.719 40.7112 26.2817 40.3126 25.7343 40.0815L25.5398 40.5421C25.9846 40.7299 26.3603 41.0623 26.7052 41.4842C27.0513 41.9075 27.354 42.4048 27.6622 42.9121L28.0895 42.6525ZM28.0903 42.6538L28.0894 42.6522L27.6624 42.9124L27.6634 42.914L28.0903 42.6538ZM30.0004 44.6093C29.6763 44.6093 29.3704 44.4216 29.046 44.056C28.722 43.6909 28.4185 43.1935 28.0905 42.654L27.6632 42.9138C27.9844 43.4418 28.312 43.9822 28.672 44.3879C29.0317 44.7931 29.463 45.1093 30.0004 45.1093V44.6093ZM31.9539 42.6869C31.6182 43.2167 31.3077 43.7051 30.9771 44.0637C30.6467 44.4221 30.3336 44.6093 30.0004 44.6093V45.1093C30.54 45.1093 30.9771 44.8014 31.3447 44.4026C31.7122 44.004 32.0476 43.4731 32.3763 42.9545L31.9539 42.6869ZM31.9531 42.6882L31.9531 42.6882L32.3771 42.9532L32.3771 42.9532L31.9531 42.6882ZM31.9547 42.6856L31.954 42.6868L32.3763 42.9546L32.377 42.9534L31.9547 42.6856ZM34.3103 40.1845C33.7702 40.4131 33.3345 40.8011 32.9601 41.2449C32.5868 41.6872 32.2627 42.1996 31.9547 42.6857L32.3771 42.9533C32.6888 42.4613 32.9948 41.979 33.3422 41.5673C33.6884 41.157 34.0638 40.8317 34.5052 40.6449L34.3103 40.1845ZM37.8142 40.2854C37.243 40.1529 36.6408 40.0129 36.0526 39.9624C35.4622 39.9117 34.8672 39.9491 34.3104 40.1844L34.5051 40.645C34.9603 40.4525 35.4656 40.4138 36.0098 40.4605C36.5562 40.5075 37.123 40.6384 37.7013 40.7725L37.8142 40.2854ZM37.8161 40.2858L37.8139 40.2853L37.7016 40.7725L37.7038 40.773L37.8161 40.2858ZM37.8181 40.2863L37.8165 40.2859L37.7033 40.7729L37.7049 40.7733L37.8181 40.2863ZM40.33 40.3297C40.1401 40.52 39.8306 40.5952 39.3745 40.5683C38.9225 40.5416 38.3923 40.4194 37.8179 40.2862L37.705 40.7733C38.2669 40.9036 38.842 41.0377 39.345 41.0674C39.8438 41.0969 40.339 41.0286 40.684 40.6828L40.33 40.3297ZM39.9426 37.8661C40.1552 38.4477 40.3513 38.9863 40.4376 39.4388C40.5267 39.9058 40.4785 40.1815 40.3304 40.3293L40.6836 40.6832C41.0241 40.3435 41.0215 39.8315 40.9288 39.3452C40.8333 38.8443 40.6203 38.2636 40.4122 37.6944L39.9426 37.8661ZM39.9419 37.8643L39.9424 37.8656L40.4124 37.6949L40.4119 37.6936L39.9419 37.8643ZM39.9448 37.8717L39.9448 37.8718L40.409 37.6861L40.409 37.686L39.9448 37.8717ZM39.4764 34.0959C39.2241 34.693 39.2352 35.3357 39.3574 35.9694C39.4792 36.601 39.7173 37.25 39.9421 37.8648L40.4117 37.693C40.1837 37.0698 39.9612 36.4597 39.8484 35.8747C39.736 35.2919 39.7383 34.7607 39.9369 34.2904L39.4764 34.0959ZM34.9152 25.5268L28.5034 32.709L28.8764 33.0419L35.2882 25.8598L34.9152 25.5268ZM36.0727 25.4608C35.7343 25.1601 35.2175 25.1895 34.9156 25.5264L35.2879 25.8601C35.4061 25.7283 35.6079 25.7167 35.7406 25.8346L36.0727 25.4608ZM36.1387 26.6188C36.4404 26.2809 36.4108 25.7628 36.0732 25.4612L35.7401 25.8341C35.872 25.9519 35.8833 26.154 35.7658 26.2857L36.1387 26.6188ZM29.325 34.2506L36.1387 26.6187L35.7657 26.2857L28.952 33.9176L29.325 34.2506ZM28.7366 34.524C28.9618 34.5174 29.1745 34.4192 29.325 34.2506L28.952 33.9176C28.8936 33.9831 28.8108 34.0216 28.7221 34.0242L28.7366 34.524ZM28.7135 34.5244C28.7173 34.5244 28.7316 34.5245 28.7473 34.5234L28.7115 34.0247C28.7147 34.0245 28.7167 34.0244 28.717 34.0244C28.7171 34.0244 28.717 34.0244 28.7164 34.0244C28.7157 34.0244 28.7149 34.0244 28.7135 34.0244V34.5244ZM28.7134 34.5244H28.7135V34.0244H28.7134V34.5244ZM28.1333 34.2841C28.2875 34.4388 28.4965 34.5244 28.7134 34.5244V34.0244C28.628 34.0244 28.5468 33.9908 28.4875 33.9312L28.1333 34.2841ZM24.4537 30.6045L28.1336 34.2845L28.4872 33.9309L24.8072 30.2509L24.4537 30.6045ZM24.4537 29.4453C24.1334 29.7655 24.1334 30.2843 24.4537 30.6045L24.8072 30.2509C24.6823 30.126 24.6823 29.9238 24.8072 29.7988L24.4537 29.4453ZM25.6129 29.4453C25.2926 29.1251 24.7739 29.1251 24.4537 29.4453L24.8072 29.7988C24.9322 29.6739 25.1344 29.6739 25.2593 29.7988L25.6129 29.4453ZM28.8666 32.6987L25.6129 29.4453L25.2593 29.7988L28.5131 33.0522L28.8666 32.6987Z" fill="white"/>
</svg>
