<svg width="92" height="92" viewBox="0 0 92 92" fill="none" xmlns="http://www.w3.org/2000/svg">
<rect width="92" height="92" rx="5" fill="#BD9B60"/>
<rect width="50" height="50" transform="translate(21 20)" fill="#BD9B60"/>
<path d="M26.8857 20.6761C26.5902 20.7816 26.1887 21.0666 25.8192 21.4366C24.7842 22.4821 24.8792 20.0531 24.8792 44.9976C24.8792 69.9421 24.7842 67.5131 25.8192 68.5586C26.8542 69.5936 24.8792 69.4986 46.0007 69.4986C67.1222 69.4986 65.1472 69.5936 66.1822 68.5586C67.2172 67.5131 67.1222 69.9421 67.1222 44.9976C67.1222 20.0531 67.2172 22.4821 66.1822 21.4366C65.1472 20.4016 67.1327 20.4966 45.9587 20.5071C29.2617 20.5071 27.3077 20.5281 26.8857 20.6761ZM65.0832 22.5346L65.3787 22.8196L65.4102 27.5721L65.4417 32.3241H46.0002H26.5582L26.5897 27.5826C26.6212 23.0096 26.6317 22.8301 26.8327 22.6086C26.9487 22.4816 27.1392 22.3341 27.2552 22.2811C27.3712 22.2391 35.8622 22.2071 46.1272 22.2176L64.7982 22.2386L65.0832 22.5346ZM65.4107 50.5941L65.3792 67.1741L65.0837 67.4591L64.7987 67.7546H46.0002H27.2022L26.9172 67.4591L26.6217 67.1741L26.5902 50.5941L26.5692 34.0141H46.0002H65.4317L65.4107 50.5941Z" fill="white"/>
<path d="M53.9207 24.9C53.2552 25.143 52.3262 26.0935 52.0937 26.769C51.7132 27.8675 51.9562 28.7965 52.8542 29.6945C53.7837 30.6135 53.8782 30.6345 57.8282 30.6345C61.7777 30.6345 61.8727 30.6135 62.8022 29.6945C63.4252 29.061 63.7422 28.3955 63.7422 27.6775C63.7422 26.59 62.7602 25.259 61.6932 24.9C60.9437 24.6465 54.6492 24.6465 53.9207 24.9ZM61.7037 26.7585C61.9572 27.012 61.9992 27.128 61.9992 27.6775C61.9992 28.2265 61.9572 28.343 61.7037 28.5965L61.4187 28.892H57.8282H54.2377L53.9527 28.5965C53.6992 28.343 53.6572 28.227 53.6572 27.688C53.6572 27.033 53.8367 26.6955 54.2907 26.505C54.4067 26.463 56.0542 26.431 57.9552 26.4415L61.4192 26.4625L61.7037 26.7585Z" fill="white"/>
<path d="M60.5317 35.8096C59.8242 36.0316 59.0637 36.7811 58.7892 37.5311C58.4937 38.3021 58.7682 39.2736 59.4547 39.9601C60.0357 40.5516 60.4262 40.7101 61.2077 40.7101C61.9892 40.7101 62.3797 40.5516 62.9502 39.9816C63.5207 39.4116 63.6787 39.0206 63.6787 38.2391C63.6787 37.7851 63.6152 37.4366 63.4992 37.2146C63.2667 36.7711 62.6647 36.1796 62.2532 35.9581C61.8517 35.7566 60.9542 35.6721 60.5317 35.8096ZM61.8412 37.6046C61.9787 37.7416 62.0522 37.9531 62.0522 38.2381C62.0522 38.5231 61.9782 38.7346 61.8412 38.8716C61.7042 39.0091 61.4927 39.0826 61.2077 39.0826C60.9227 39.0826 60.7112 39.0086 60.5742 38.8716C60.4372 38.7341 60.3632 38.5231 60.3632 38.2381C60.3632 37.9531 60.4372 37.7416 60.5742 37.6046C60.7117 37.4671 60.9227 37.3936 61.2077 37.3936C61.4927 37.3936 61.7037 37.4676 61.8412 37.6046Z" fill="white"/>
<path d="M44.0468 38.3966C42.6423 38.6076 41.5758 38.9561 40.2448 39.6006C36.3268 41.5121 33.6443 44.9546 32.7258 49.2531C32.4723 50.4466 32.4723 53.0656 32.7258 54.2591C33.8978 59.7401 38.0168 63.8586 43.4978 65.0311C44.6913 65.2846 47.3103 65.2846 48.5038 65.0311C53.9848 63.8586 58.1033 59.7401 59.2758 54.2591C59.5293 53.0656 59.5293 50.4466 59.2758 49.2531C58.5463 45.8421 56.6773 42.9271 53.9103 40.8786C52.8753 40.1076 50.8053 39.0726 49.6968 38.7666C47.8483 38.2596 45.7783 38.1221 44.0468 38.3966ZM48.4823 40.1816C52.1153 40.9841 54.9873 43.1916 56.5718 46.4231C58.2723 49.8871 58.2508 53.7206 56.5083 57.1951C53.6358 62.9081 46.5493 65.2101 40.6673 62.3271C34.2783 59.1906 32.2083 51.0376 36.2528 44.9656C36.8968 43.9941 38.2383 42.6526 39.2098 42.0086C40.6673 41.0476 42.5573 40.2976 44.2578 40.0336C45.1448 39.8961 47.5948 39.9806 48.4823 40.1816Z" fill="white"/>
<path d="M44.2578 41.7655C40.6248 42.4625 37.5728 45.092 36.3688 48.5875C36.0518 49.5065 36.3158 50.066 37.0763 50.066C37.5093 50.066 37.7943 49.749 38.0268 49.01C38.9883 46.032 41.5228 43.9095 44.7328 43.4025C45.6938 43.2545 45.7678 43.223 45.9473 42.8745C46.2323 42.336 45.9263 41.776 45.3033 41.681C45.1343 41.649 44.6698 41.6915 44.2578 41.7655Z" fill="white"/>
<path d="M36.1264 51.1751C35.5984 51.6926 35.9679 52.6006 36.7074 52.6006C36.9079 52.6006 37.1299 52.5056 37.2884 52.3366C37.4574 52.1781 37.5524 51.9566 37.5524 51.7556C37.5524 51.5551 37.4574 51.3331 37.2884 51.1746C37.1299 51.0056 36.9084 50.9106 36.7074 50.9106C36.5064 50.9111 36.2844 51.0061 36.1264 51.1751Z" fill="white"/>
</svg>
